<?xml version="1.0" encoding="UTF-8"?>
<svg width="149px" height="79px" viewBox="0 0 149 79" version="1.1" xmlns="http://www.w3.org/2000/svg" xmlns:xlink="http://www.w3.org/1999/xlink">
    <!-- Generator: Sketch 48.2 (47327) - http://www.bohemiancoding.com/sketch -->
    <title>Page 1</title>
    <desc>Created with Sketch.</desc>
    <defs>
        <polygon id="path-1" points="0.208474576 0.731428571 7.84576271 0.731428571 7.84576271 12.7739683 0.208474576 12.7739683 0.208474576 0.731428571"></polygon>
        <polygon id="path-3" points="8.24199153 12.6984127 0.319957627 12.6984127 0.319957627 0.790222222 8.24199153 0.790222222 8.24199153 12.6984127"></polygon>
    </defs>
    <g id="FHF_Homepage" stroke="none" stroke-width="1" fill="none" fill-rule="evenodd" transform="translate(-950.000000, -141.000000)">
        <g id="Page-1" transform="translate(950.000000, 140.000000)">
            <path d="M11.4048729,43.2846984 C13.3319915,43.2846984 14.371822,41.4269206 14.371822,38.8986667 C14.371822,36.4212063 13.3980932,34.680254 11.4379237,34.680254 L9.82987288,34.680254 L9.82987288,43.2846984 L11.4048729,43.2846984 Z M7.76800847,33.039619 L11.5726695,33.039619 C14.7074153,33.039619 16.4819915,35.4167619 16.4819915,38.8986667 C16.4819915,42.447873 14.5561441,44.9253333 11.5383475,44.9253333 L7.76800847,44.9253333 L7.76800847,33.039619 Z" id="Fill-1" fill="#174375"></path>
            <path d="M26.3761441,39.6350476 L26.3761441,38.3296508 C26.3761441,35.6502857 25.6566525,34.4452063 24.0473305,34.4452063 C22.4380085,34.4452063 21.7185169,35.6502857 21.7185169,38.3296508 L21.7185169,39.6350476 C21.7185169,42.3131429 22.4380085,43.5194921 24.0473305,43.5194921 C25.6566525,43.5194921 26.3761441,42.3131429 26.3761441,39.6350476 M19.6058051,39.584254 L19.6058051,38.3791746 C19.6058051,34.8807619 21.0638559,32.7537778 24.0473305,32.7537778 C27.0308051,32.7537778 28.4888559,34.8807619 28.4888559,38.3791746 L28.4888559,39.584254 C28.4888559,43.0839365 27.0308051,45.2096508 24.0473305,45.2096508 C21.0638559,45.2096508 19.6058051,43.0839365 19.6058051,39.584254" id="Fill-3" fill="#174375"></path>
            <path d="M32,33 L33.8940678,33 L34.229661,40.3663492 C34.2792373,41.487619 34.2792373,42.207619 34.2792373,42.7269841 L34.4470339,42.7269841 C34.4622881,42.391746 34.5144068,41.8215873 34.7483051,40.6342857 L35.6864407,35.9638095 L37.3631356,35.9638095 L38.3012712,40.6342857 C38.5364407,41.8215873 38.5872881,42.391746 38.6025424,42.7269841 L38.770339,42.7269841 C38.770339,42.207619 38.770339,41.487619 38.8199153,40.3663492 L39.1555085,33 L41.0495763,33 L40.1788136,44.8857143 L37.7991525,44.8857143 L36.9105932,40.231746 C36.7262712,39.2768254 36.6423729,38.4234921 36.6080508,37.8393651 L36.4415254,37.8393651 C36.4072034,38.4234921 36.3233051,39.2768254 36.1567797,40.231746 L35.2516949,44.8857143 L32.8885593,44.8857143 L32,33 Z" id="Fill-5" fill="#174375"></path>
            <path d="M118,33 L119.894068,33 L120.229661,40.3663492 C120.279237,41.487619 120.279237,42.207619 120.279237,42.7269841 L120.447034,42.7269841 C120.462288,42.391746 120.514407,41.8215873 120.748305,40.6342857 L121.686441,35.9638095 L123.363136,35.9638095 L124.301271,40.6342857 C124.536441,41.8215873 124.587288,42.391746 124.602542,42.7269841 L124.770339,42.7269841 C124.770339,42.207619 124.770339,41.487619 124.819915,40.3663492 L125.155508,33 L127.049576,33 L126.178814,44.8857143 L123.799153,44.8857143 L122.910593,40.231746 C122.726271,39.2768254 122.642373,38.4234921 122.608051,37.8393651 L122.441525,37.8393651 C122.407203,38.4234921 122.323305,39.2768254 122.15678,40.231746 L121.251695,44.8857143 L118.888559,44.8857143 L118,33 Z" id="Fill-5-Copy" fill="#174375"></path>
            <path d="M50.6230085,41.9949206 L50.6903814,41.9949206 C50.6230085,41.5263492 50.5912288,40.8736508 50.5912288,40.3873016 L50.5912288,33.0387302 L52.5170763,33.0387302 L52.5170763,44.9257143 L50.3052119,44.9257143 L46.9874153,37.2914286 C46.7191949,36.6552381 46.501822,35.8844444 46.4509746,35.7346032 L46.3670763,35.7346032 C46.4344492,36.1193651 46.4662288,36.6552381 46.4662288,37.0907937 L46.4662288,44.9257143 L44.5403814,44.9257143 L44.5403814,33.0387302 L46.9530932,33.0387302 L50.0547881,40.3212698 C50.3382627,41.0247619 50.5403814,41.6596825 50.6230085,41.9949206" id="Fill-7" fill="#174375"></path>
            <polygon id="Fill-9" fill="#174375" points="61.7905085 34.6462222 61.7905085 43.3179683 64.5731356 43.3179683 64.5731356 44.9255873 56.9638136 44.9255873 56.9638136 43.3179683 59.7299153 43.3179683 59.7299153 34.6462222 56.9638136 34.6462222 56.9638136 33.0386032 64.5731356 33.0386032 64.5731356 34.6462222"></polygon>
            <path d="M75.105678,41.9949206 L75.1730508,41.9949206 C75.105678,41.5263492 75.0713559,40.8736508 75.0713559,40.3873016 L75.0713559,33.0387302 L76.9984746,33.0387302 L76.9984746,44.9257143 L74.7866102,44.9257143 L71.4688136,37.2914286 C71.2005932,36.6552381 70.9819492,35.8844444 70.9323729,35.7346032 L70.8472034,35.7346032 C70.9145763,36.1193651 70.9488983,36.6552381 70.9488983,37.0907937 L70.9488983,44.9257143 L69.0217797,44.9257143 L69.0217797,33.0387302 L71.4344915,33.0387302 L74.5349153,40.3212698 C74.819661,41.0247619 75.0217797,41.6596825 75.105678,41.9949206" id="Fill-11" fill="#174375"></path>
            <path d="M80.8260169,39.7182222 L80.8260169,38.1956825 C80.8260169,34.8140952 82.3857627,32.7544127 85.2840678,32.7544127 C88.3171186,32.7544127 89.2222034,34.9639365 89.3391525,36.4712381 L87.2950847,36.8064762 C87.2277119,35.7347302 86.7255932,34.4115556 85.2497458,34.4115556 C83.8247458,34.4115556 82.9539831,35.3499683 82.9539831,38.3785397 L82.9539831,39.4680635 C82.9539831,42.0788571 83.6416949,43.5353651 85.2840678,43.5353651 C87.1094915,43.5353651 87.5785593,41.7779048 87.5785593,40.6731429 L87.5785593,40.1550476 L84.999322,40.1550476 L84.999322,38.5969524 L89.4395763,38.5969524 L89.4395763,44.9258413 L88.0158475,44.9258413 L87.8315254,43.183619 C87.3459322,44.4407619 86.4230508,45.2090159 84.8302542,45.2090159 C82.3501695,45.2090159 80.8260169,43.1010794 80.8260169,39.7182222" id="Fill-13" fill="#174375"></path>
            <polygon id="Fill-15" fill="#174375" points="101.99928 33.0391111 101.99928 34.7800635 98.5136864 34.7800635 98.5136864 44.9248254 96.4352966 44.9248254 96.4352966 34.7800635 92.9497034 34.7800635 92.9497034 33.0391111"></polygon>
            <path d="M112.770339,39.8812698 L112.770339,38.575873 C112.770339,35.8965079 112.049576,34.6914286 110.440254,34.6914286 C108.830932,34.6914286 108.110169,35.8965079 108.110169,38.575873 L108.110169,39.8812698 C108.110169,42.5593651 108.830932,43.7657143 110.440254,43.7657143 C112.049576,43.7657143 112.770339,42.5593651 112.770339,39.8812698 M106,39.8304762 L106,38.6253968 C106,35.1269841 107.45678,33 110.440254,33 C113.423729,33 114.880508,35.1269841 114.880508,38.6253968 L114.880508,39.8304762 C114.880508,43.3301587 113.423729,45.455873 110.440254,45.455873 C107.45678,45.455873 106,43.3301587 106,39.8304762" id="Fill-17" fill="#174375"></path>
            <path d="M137.066314,41.9949206 L137.133686,41.9949206 C137.066314,41.5263492 137.034534,40.8736508 137.034534,40.3873016 L137.034534,33.0387302 L138.960381,33.0387302 L138.960381,44.9257143 L136.748517,44.9257143 L133.43072,37.2914286 C133.1625,36.6552381 132.945127,35.8844444 132.89428,35.7346032 L132.810381,35.7346032 C132.877754,36.1193651 132.909534,36.6552381 132.909534,37.0907937 L132.909534,44.9257143 L130.983686,44.9257143 L130.983686,33.0387302 L133.396398,33.0387302 L136.498093,40.3212698 C136.781568,41.0247619 136.983686,41.6596825 137.066314,41.9949206" id="Fill-19" fill="#174375"></path>
            <path d="M6.1834322,16.7395556 C5.88978814,15.5014603 5.59614407,14.2633651 5.3025,13.0252698 C5.18936441,12.5351111 5.10165254,12.1947937 4.96309322,11.4544762 C4.95800847,11.455746 4.95292373,11.4570159 4.9465678,11.4570159 C4.88555085,12.0055873 4.7775,12.3395556 4.50038136,13.0620952 C4.05673729,14.1947937 3.62199153,15.3287619 3.19487288,16.4627302 C2.98385593,16.9960635 2.9025,17.2805079 2.70673729,17.5852698 C3.86478814,17.2944762 5.02283898,17.0138413 6.1834322,16.7395556 M6.53936441,18.2379683 C4.77877119,18.6544762 3.01944915,19.0887619 1.26394068,19.5395556 C1.14826271,19.0913016 1.03258475,18.6417778 0.91690678,18.1947937 C1.95038136,15.3579683 3.02707627,12.5287619 4.14826271,9.70209524 C4.91860169,9.5192381 5.68639831,9.33892063 6.45800847,9.1624127 C7.00461864,11.5382857 7.5525,13.9154286 8.10038136,16.2925714 C8.70038136,16.1541587 9.30165254,16.0182857 9.90419492,15.8836825 L10.2385169,17.3871746 C9.64105932,17.5205079 9.04233051,17.6576508 8.44614407,17.7935238 C8.65334746,18.696381 8.86055085,19.5992381 9.07029661,20.5020952 C8.43978814,20.6455873 7.80927966,20.7928889 7.18004237,20.9427302 C6.96648305,20.0411429 6.75292373,19.1408254 6.53936441,18.2379683" id="Fill-21" fill="#174375"></path>
            <path d="M19.8747458,12.3235556 C19.7107627,11.4346667 19.5124576,10.7413333 19.2772881,10.1699048 C18.2158475,12.2130794 17.1836441,14.2613333 16.1730508,16.3159365 C16.780678,17.1324444 17.4734746,17.3330794 18.315,17.1705397 C19.7908475,16.8860952 20.4811017,15.6670476 19.8747458,12.3235556 M15.0455085,13.2632381 C15.2018644,14.0365714 15.3861864,14.680381 15.5972034,15.2022857 C16.5925424,13.1540317 17.6158475,11.112127 18.6633051,9.07530159 C18.09,8.40101587 17.3997458,8.22704762 16.6001695,8.37942857 C15.0811017,8.67657143 14.3705085,9.89942857 15.0455085,13.2632381 M21.935339,11.9476825 C22.6866102,16.1686349 21.3416949,18.2029206 18.6200847,18.7337143 C15.8959322,19.2645079 13.8836441,17.8829206 12.9912712,13.6886349 C12.0988983,9.48292063 13.4412712,7.37498413 16.2950847,6.81879365 C19.1501695,6.26514286 21.185339,7.71149206 21.935339,11.9476825" id="Fill-23" fill="#174375"></path>
            <path d="M30.9057203,11.9925079 C30.7201271,10.7340952 30.5319915,9.47568254 30.3476695,8.216 C30.2752119,7.72203175 30.2180085,7.37155556 30.1455508,6.62234921 C30.1404661,6.62234921 30.1341102,6.62234921 30.1290254,6.62361905 C30.0095339,7.16457143 29.8875,7.48838095 29.5480932,8.18298413 C29.0129237,9.27377778 28.4853814,10.3671111 27.9641949,11.4591746 C27.7125,11.9734603 27.5955508,12.247746 27.3845339,12.536 C28.5565678,12.3467937 29.7311441,12.1664762 30.9057203,11.9925079 M31.1319915,13.5163175 C29.3485169,13.7804444 27.5675847,14.0610794 25.7879237,14.3569524 C25.7116525,13.9010794 25.6353814,13.4452063 25.557839,12.9867937 C26.8213983,10.2528254 28.1294492,7.52520635 29.4845339,4.80774603 C30.2625,4.69092063 31.0417373,4.57790476 31.8247881,4.46742857 C32.1641949,6.88266667 32.5074153,9.29663492 32.8480932,11.711873 C33.4557203,11.6267937 34.0633475,11.5429841 34.6709746,11.4604444 C34.7396186,11.968381 34.8082627,12.4788571 34.8769068,12.9867937 C34.271822,13.0693333 33.6692797,13.1506032 33.0641949,13.2369524 C33.1951271,14.1537778 33.3235169,15.071873 33.453178,15.9874286 C32.8150424,16.0788571 32.1769068,16.1715556 31.5400424,16.2655238 C31.4052966,15.3486984 31.2680085,14.4331429 31.1319915,13.5163175" id="Fill-25" fill="#174375"></path>
            <path d="M50.5271186,8.75212698 C50.4978814,8.34069841 50.4622881,7.92926984 50.4305085,7.51657143 C50.1495763,4.06514286 51.545339,1.79212698 54.6788136,1.58768254 C57.3597458,1.42006349 59.0631356,2.71657143 59.4305085,5.63085714 C58.7224576,5.77053968 58.0182203,5.91403175 57.3139831,6.06006349 C57.1042373,4.19466667 56.2271186,3.20165079 54.770339,3.29561905 C53.0898305,3.40355556 52.4110169,4.71530159 52.6016949,7.31847619 C52.629661,7.71466667 52.6601695,8.10831746 52.6868644,8.50450794 C52.875,11.0949841 53.7584746,12.4194286 55.3487288,12.3178413 C56.7737288,12.2264127 57.4919492,11.1648254 57.4932203,9.25371429 C58.1974576,9.34133333 58.9004237,9.43403175 59.604661,9.528 C59.5525424,12.0473651 58.1338983,13.8492698 55.3754237,14.0245079 C52.4288136,14.2175238 50.8105932,12.2111746 50.5271186,8.75212698" id="Fill-27" fill="#174375"></path>
            <path d="M65.6609746,6.91555556 C66.2825847,6.89777778 66.9054661,6.88380952 67.5270763,6.86857143 C68.9558898,6.8368254 69.7097034,6.12698413 69.6919068,4.85460317 C69.6741102,3.58349206 68.8974153,2.88888889 67.4406356,2.91936508 C66.8113983,2.93206349 66.1808898,2.94857143 65.5503814,2.96634921 C65.5859746,4.28190476 65.6241102,5.59873016 65.6609746,6.91555556 M67.5766525,8.3415873 C66.9512288,8.35555556 66.3270763,8.37079365 65.7016525,8.38730159 C65.7474153,10.0114286 65.793178,11.6355556 65.8389407,13.2571429 C65.1461441,13.2774603 64.4533475,13.2990476 63.7605508,13.3244444 C63.6194492,9.36507937 63.4796186,5.40571429 63.3410593,1.44380952 C64.7597034,1.39428571 66.1796186,1.35492063 67.5982627,1.32571429 C70.3491102,1.26857143 71.9241102,2.55492063 71.936822,4.8152381 C71.9444492,6.32126984 71.1130932,7.44761905 69.6334322,7.95174603 C70.5652119,9.68126984 71.4791949,11.4120635 72.3817373,13.1479365 C71.6202966,13.1530159 70.8613983,13.1593651 70.0986864,13.1707937 C69.2724153,11.5555556 68.4308898,9.94666667 67.5766525,8.3415873" id="Fill-29" fill="#174375"></path>
            <g id="Group-33" transform="translate(76.271186, 0.538794)">
                <mask id="mask-2" fill="white">
                    <use xlink:href="#path-1"></use>
                </mask>
                <g id="Clip-32"></g>
                <path d="M7.78855932,2.58095238 C6.01016949,2.52126984 4.22923729,2.47809524 2.45084746,2.44888889 L2.39872881,5.72888889 C4.05889831,5.75555556 5.72033898,5.79619048 7.38432203,5.85079365 C7.36525424,6.4031746 7.34618644,6.95428571 7.32966102,7.50666667 C5.67584746,7.45333333 4.02330508,7.41269841 2.37076271,7.38603175 C2.35169492,8.57460317 2.33389831,9.7631746 2.31355932,10.9530159 C4.08177966,10.9796825 5.85254237,11.024127 7.61949153,11.0850794 C7.60042373,11.6488889 7.58135593,12.2114286 7.56228814,12.7739683 C5.11144068,12.6914286 2.66059322,12.6380952 0.208474576,12.6165079 L0.312711864,0.730793651 C2.82330508,0.752380952 5.33389831,0.806984127 7.84576271,0.890793651 C7.82542373,1.45333333 7.80889831,2.0184127 7.78855932,2.58095238" id="Fill-31" fill="#174375" mask="url(#mask-2)"></path>
            </g>
            <path d="M96.8286864,3.82285714 C95.052839,3.68698413 93.2757203,3.56761905 91.4998729,3.46349206 C91.4363136,4.55428571 91.3714831,5.64761905 91.3066525,6.7384127 C92.9655508,6.83619048 94.6257203,6.94793651 96.2846186,7.07238095 L96.1587712,8.7231746 C94.5100424,8.6 92.8600424,8.48952381 91.2100424,8.39301587 L91.0015678,11.952381 C92.7685169,12.0565079 94.5329237,12.175873 96.2973305,12.311746 C96.2553814,12.8730159 96.2134322,13.4342857 96.1676695,13.9968254 C93.7219068,13.807619 91.2736017,13.6514286 88.8252966,13.5269841 C89.0274153,9.56888889 89.2320763,5.61333333 89.4354661,1.6552381 C91.9447881,1.7847619 94.452839,1.9447619 96.9583475,2.13650794 C96.9151271,2.69777778 96.8719068,3.26031746 96.8286864,3.82285714" id="Fill-34" fill="#174375"></path>
            <path d="M104.749958,8.99390476 C104.235127,9.55644444 103.720297,10.1215238 103.20928,10.6866032 C103.08089,11.9856508 102.948686,13.2859683 102.819025,14.5850159 C102.128771,14.5164444 101.437246,14.4491429 100.746992,14.3856508 C101.111822,10.440254 101.481737,6.49485714 101.846568,2.55073016 C102.567331,2.61803175 103.286822,2.68660317 104.005042,2.75771429 C103.82072,4.61295238 103.633856,6.46692063 103.448263,8.32215873 C104.946992,6.59771429 106.471144,4.8872381 108.018178,3.18692063 C108.849534,3.28215873 109.675805,3.37866667 110.504619,3.47898413 C109.143178,4.8935873 107.796992,6.31707937 106.469873,7.74819048 C107.481737,10.2675556 108.465636,12.792 109.416483,15.3215238 C108.62072,15.223746 107.823686,15.1285079 107.025381,15.0370794 C106.288093,13.0193016 105.529195,11.0053333 104.749958,8.99390476" id="Fill-36" fill="#174375"></path>
            <path d="M128.527627,11.8697143 C129.140339,11.9852698 129.755593,12.1020952 130.368305,12.2201905 C131.77678,12.4944762 132.667881,11.959873 132.92339,10.7141587 C133.173814,9.46463492 132.561102,8.62146032 131.12339,8.34209524 C130.50178,8.22146032 129.880169,8.10209524 129.256017,7.98526984 C129.014492,9.28050794 128.770424,10.5744762 128.527627,11.8697143 M130.105169,13.6703492 C129.489915,13.5497143 128.872119,13.4328889 128.255593,13.3173333 C127.955593,14.9135238 127.656864,16.5097143 127.355593,18.1059048 C126.671695,17.9776508 125.989068,17.8519365 125.302627,17.7287619 C126.006864,13.8290794 126.708559,9.93066667 127.412797,6.02971429 C128.817458,6.28368254 130.218305,6.54653968 131.617881,6.81828571 C134.32678,7.34907937 135.605593,8.944 135.135254,11.152254 C134.830169,12.6290794 133.762373,13.5446349 132.208983,13.7287619 C132.756864,15.6144762 133.28822,17.5027302 133.804322,19.3909841 C133.056864,19.232254 132.306864,19.0786032 131.558136,18.9262222 C131.087797,17.1738413 130.603475,15.4214603 130.105169,13.6703492" id="Fill-38" fill="#174375"></path>
            <path d="M141.330127,19.3969524 C143.236907,19.8528254 144.71911,18.3099683 145.335636,15.8566349 C145.943263,13.4540952 145.364873,11.5112381 143.357669,11.0337778 C142.809788,10.904254 142.258093,10.7747302 141.710212,10.6464762 C141.061907,13.4426667 140.411059,16.2363175 139.764025,19.0299683 C140.285212,19.1506032 140.808941,19.2737778 141.330127,19.3969524 M139.957246,8.56520635 C141.265297,8.85726984 142.570805,9.15949206 143.875042,9.47060317 C147.105127,10.2452063 148.331822,13.0248889 147.459788,16.3937778 C146.563602,19.8299683 144.05428,21.7321905 141.082246,21.0248889 C139.839025,20.7302857 138.595805,20.4420317 137.350042,20.1626667 C138.219534,16.2972698 139.087754,12.4306032 139.957246,8.56520635" id="Fill-40" fill="#174375"></path>
            <path d="M5.27097458,64.7875556 C7.14597458,65.2408889 7.84004237,64.2618413 8.04978814,63.3500952 C8.26970339,62.4205714 8.09809322,61.2688254 6.35402542,60.8459683 C5.77055085,60.7050159 5.18707627,60.5615238 4.60614407,60.4180317 C4.27563559,61.7386667 3.94766949,63.0605714 3.61716102,64.3812063 C4.16885593,64.5170794 4.71927966,64.6529524 5.27097458,64.7875556 M2.11588983,70.407873 C1.41038136,70.2326349 0.704872881,70.0548571 0.00063559322,69.8745397 C0.985805085,66.0358095 1.97351695,62.1983492 2.95995763,58.3608889 C4.30614407,58.7062857 5.65614407,59.0440635 7.00868644,59.367873 C10.1650424,60.1234286 10.5845339,62.2262857 10.2273305,63.8008889 C9.86631356,65.3958095 8.45911017,67.1342222 5.12733051,66.3380317 C4.49936441,66.1856508 3.87266949,66.0307302 3.24470339,65.8745397 C2.8684322,67.3869206 2.49088983,68.8967619 2.11588983,70.407873" id="Fill-42" fill="#174375"></path>
            <path d="M21.8708898,64.2593016 C20.1624153,63.944381 18.4564831,63.6129524 16.7543644,63.2675556 L16.0984322,66.4815238 C17.7242797,66.8129524 19.3539407,67.1304127 20.9848729,67.4326349 C20.8844492,67.976127 20.7827542,68.5183492 20.6810593,69.0605714 C19.0399576,68.7570794 17.4039407,68.4383492 15.7679237,68.1056508 C15.5302119,69.2700952 15.2937712,70.4345397 15.0560593,71.600254 C16.8497034,71.9646984 18.6446186,72.3126349 20.4433475,72.6453333 C20.3403814,73.1989841 20.2374153,73.7539048 20.1357203,74.3062857 C17.6149576,73.8427937 15.0980085,73.343746 12.5874153,72.8142222 L15.0458898,61.1850159 C17.4191949,61.6866032 19.7963136,62.1564444 22.1785169,62.5958095 C22.076822,63.1507302 21.9725847,63.704381 21.8708898,64.2593016" id="Fill-44" fill="#174375"></path>
            <path d="M31.5835169,73.2275556 C31.6063983,73.2313651 31.6305508,73.2351746 31.6534322,73.2377143 C31.6483475,72.7666032 31.713178,72.1126349 31.781822,71.6326349 C32.1377542,69.2097778 32.4924153,66.7856508 32.8470763,64.3615238 C33.4915678,64.4554921 34.1347881,64.5469206 34.7780085,64.6358095 C34.2301271,68.5608889 33.6809746,72.4846984 33.1356356,76.4097778 C32.3652966,76.3018413 31.5987712,76.1913651 30.827161,76.079619 C30.0466525,73.3913651 29.2941102,70.7031111 28.5746186,68.0110476 C28.4017373,67.3393016 28.3063983,66.5405714 28.2784322,66.3869206 C28.2491949,66.3818413 28.2212288,66.3780317 28.1945339,66.3742222 C28.1983475,66.7627937 28.1462288,67.2986667 28.0775847,67.727873 C27.6606356,70.3056508 27.2462288,72.8834286 26.8305508,75.463746 C26.1619068,75.3558095 25.4945339,75.2453333 24.8258898,75.1335873 L26.7987712,63.4116825 C27.6034322,63.5462857 28.406822,63.6770794 29.2102119,63.8053333 C29.8610593,66.367873 30.5386017,68.927873 31.2415678,71.4853333 C31.4322458,72.2256508 31.5441102,72.8834286 31.5835169,73.2275556" id="Fill-46" fill="#174375"></path>
            <path d="M44.2445339,74.8 C44.2686864,74.8025397 44.2902966,74.8050794 44.313178,74.807619 C44.2902966,74.3339683 44.3246186,73.68 44.3754661,73.1974603 C44.6246186,70.7619048 44.8750424,68.3238095 45.1254661,65.8869841 C45.7712288,65.9530159 46.4169915,66.0190476 47.0640254,66.08 C46.6852119,70.0228571 46.3063983,73.968254 45.9288559,77.912381 C45.1572458,77.8387302 44.3843644,77.7612698 43.6127542,77.6825397 C42.717839,75.0311111 41.8534322,72.375873 41.0182627,69.7180952 C40.8199576,69.0577778 40.6864831,68.2615873 40.6534322,68.1079365 C40.6241949,68.1053968 40.5975,68.1015873 40.5682627,68.0990476 C40.5873305,68.4901587 40.5619068,69.0234921 40.5110593,69.4565079 C40.2059746,72.0507937 39.902161,74.6438095 39.5983475,77.2380952 C38.9258898,77.1593651 38.2547034,77.0780952 37.5847881,76.9955556 C38.0729237,73.064127 38.5610593,69.1314286 39.0504661,65.1987302 C39.8589407,65.2990476 40.6661441,65.3955556 41.4720763,65.4895238 C42.2309746,68.0203175 43.0165678,70.5485714 43.8288559,73.0755556 C44.0500424,73.8044444 44.1886017,74.4571429 44.2445339,74.8" id="Fill-48" fill="#174375"></path>
            <path d="M50.1274576,75.1100952 C50.7821186,74.9513651 51.4367797,74.7900952 52.0876271,74.6262857 C52.3482203,75.9900952 53.1147458,77.0897778 54.8105085,77.2027937 C55.809661,77.2700952 57.0211017,76.9881905 57.0922881,75.736127 C57.1711017,74.4307302 56.3562712,74.0497778 55.4232203,73.736127 C54.8829661,73.5558095 54.3477966,73.3754921 53.8113559,73.1913651 C52.0316949,72.5970794 50.8571186,71.4567619 51.0058475,69.6548571 C51.1672881,67.6840635 52.9278814,66.303746 55.3355085,66.4650159 C57.5105085,66.6110476 59.1439831,67.5824762 59.5024576,69.663746 C58.8935593,69.9354921 58.2859322,70.2046984 57.6757627,70.4713651 C57.3922881,68.8116825 56.3473729,68.2110476 55.2071186,68.136127 C53.7122034,68.0345397 53.1961017,68.8154921 53.1388983,69.583746 C53.0778814,70.4675556 53.7198305,71.0897778 54.6935593,71.4389841 C55.2211017,71.6218413 55.7486441,71.8021587 56.2774576,71.9799365 C57.9528814,72.5386667 59.395678,73.3831111 59.2825424,75.5888254 C59.1884746,77.4224762 57.6236441,79.0973968 54.6274576,78.9018413 C51.964322,78.7240635 50.4999153,77.1888254 50.1274576,75.1100952" id="Fill-50" fill="#174375"></path>
            <path d="M68.5198729,79.2171429 C67.7965678,79.2019048 67.0732627,79.1866667 66.3525,79.1650794 C66.3944492,77.6196825 66.4363983,76.0755556 66.4796186,74.5314286 C65.2694492,72.0819048 64.0897881,69.6222222 62.9419068,67.1587302 C63.6969915,67.1879365 64.4520763,67.215873 65.207161,67.24 C65.9825847,69.1079365 66.7719915,70.9720635 67.5779237,72.8336508 C68.4652119,71.0126984 69.3372458,69.1879365 70.1927542,67.3580952 C70.9529237,67.3695238 71.7156356,67.3784127 72.4770763,67.3834921 C71.2186017,69.7911111 69.9296186,72.1911111 68.6113983,74.5822222 C68.582161,76.1263492 68.5491102,77.671746 68.5198729,79.2171429" id="Fill-52" fill="#174375"></path>
            <g id="Group-56" transform="translate(76.271186, 66.570540)">
                <mask id="mask-4" fill="white">
                    <use xlink:href="#path-3"></use>
                </mask>
                <g id="Clip-55"></g>
                <path d="M2.40088983,0.790222222 C2.44919492,4.17053968 2.49877119,7.55212698 2.54707627,10.9337143 C4.42588983,10.9057778 6.30470339,10.8626032 8.18351695,10.7991111 C8.20258475,11.3794286 8.22292373,11.959746 8.24199153,12.5400635 C5.62970339,12.6264127 3.01741525,12.679746 0.407669492,12.6987937 C0.377161017,8.73688889 0.350466102,4.77498413 0.319957627,0.813079365 C1.01275424,0.808 1.70809322,0.800380952 2.40088983,0.790222222" id="Fill-54" fill="#174375" mask="url(#mask-4)"></path>
            </g>
            <path d="M93.0312712,76.960254 C93.0554237,76.9577143 93.0770339,76.9577143 93.1011864,76.9551746 C93.1367797,76.6999365 93.2041525,76.0751746 93.2626271,75.6193016 C93.8181356,72.6377143 94.3520339,69.6548571 94.864322,66.6694603 C95.5977966,66.6173968 96.3274576,66.5640635 97.0571186,66.5069206 C96.2600847,70.543746 95.4185593,74.5780317 94.5274576,78.6085079 C93.6261864,78.6694603 92.7223729,78.7253333 91.8211017,78.7773968 C90.4138983,74.8891429 89.0537288,70.9932698 87.7367797,67.0872381 C88.4638983,67.0529524 89.1910169,67.0173968 89.9181356,66.9793016 C90.820678,69.8745397 91.7410169,72.7659683 92.6880508,75.656127 C92.8177119,76.1018413 92.9651695,76.7100952 93.0312712,76.960254" id="Fill-57" fill="#174375"></path>
            <path d="M104.007585,73.112254 C104.981314,73.0144762 105.951229,72.9128889 106.923686,72.8049524 C105.985551,70.6335238 105.361398,68.9154286 104.930466,67.495746 C104.908856,67.4982857 104.885975,67.5008254 104.863093,67.5033651 C104.743602,68.9814603 104.471568,70.7947937 104.007585,73.112254 M107.591059,74.3986032 C106.290636,74.5446349 104.988941,74.6805079 103.687246,74.8100317 C103.490212,75.8436825 103.291907,76.8786032 103.089788,77.912254 C102.383008,77.9795556 101.674958,78.0443175 100.966907,78.1078095 C101.868178,74.0493968 102.719873,69.9897143 103.521992,65.9262222 C104.319025,65.8449524 105.116059,65.7611429 105.913093,65.6735238 C107.546568,69.4805079 109.228347,73.2735238 110.960975,77.0538413 C110.255466,77.1414603 109.547415,77.224 108.843178,77.3052698 C108.421144,76.3376508 108.004195,75.3674921 107.591059,74.3986032" id="Fill-59" fill="#174375"></path>
            <path d="M120.475932,72.7674921 C120.500085,72.7636825 120.521695,72.759873 120.544576,72.7560635 C120.406017,72.3065397 120.263644,71.6665397 120.193729,71.1852698 C119.813644,68.7662222 119.434831,66.3446349 119.054746,63.9243175 C119.697966,63.824 120.338644,63.7224127 120.979322,63.6170159 L122.901356,75.3465397 C122.133559,75.472254 121.368305,75.5954286 120.600508,75.7147937 C119.056017,73.3782857 117.540763,71.0328889 116.054746,68.6747937 C115.692458,68.0843175 115.36322,67.3541587 115.290763,67.2119365 C115.261525,67.215746 115.234831,67.2208254 115.205593,67.2233651 C115.327627,67.5954286 115.436949,68.1211429 115.497966,68.551619 C115.86661,71.1370159 116.233983,73.7224127 116.598814,76.3078095 C115.931441,76.4030476 115.260254,76.4970159 114.590339,76.5871746 C114.058983,72.6595556 113.528898,68.7332063 112.997542,64.8068571 C113.803475,64.6989206 114.609407,64.5871746 115.415339,64.471619 C116.794576,66.7243175 118.203051,68.9693968 119.633136,71.2055873 C120.027203,71.8532063 120.341186,72.4513016 120.475932,72.7674921" id="Fill-61" fill="#174375"></path>
            <path d="M130.534958,63.527746 C131.09428,66.3620317 131.656144,69.200127 132.215466,72.0344127 C133.172669,71.8464762 134.127331,71.6521905 135.08072,71.4553651 L135.408686,73.0286984 C132.784958,73.5734603 130.157415,74.0826667 127.523517,74.5550476 C127.426907,74.0267937 127.331568,73.5010794 127.2375,72.9715556 C128.19089,72.8013968 129.141737,72.6261587 130.092585,72.4458413 C129.552331,69.6064762 129.013347,66.7658413 128.473093,63.9252063 C127.550212,64.1004444 126.627331,64.271873 125.701907,64.4382222 C125.607839,63.9099683 125.5125,63.384254 125.418432,62.856 C127.948093,62.4013968 130.470127,61.9137778 132.99089,61.3906032 C133.097669,61.9150476 133.209534,62.4407619 133.316314,62.9652063 C132.389619,63.1569524 131.462924,63.343619 130.534958,63.527746" id="Fill-63" fill="#174375"></path>
            <path d="M141.577119,66.8709841 C142.534322,66.6474921 143.490254,66.4201905 144.446186,66.1852698 C143.230932,64.152254 142.380508,62.5332063 141.776695,61.1820952 C141.756356,61.1859048 141.732203,61.1909841 141.710593,61.1960635 C141.78178,62.6766984 141.739831,64.5078095 141.577119,66.8709841 M145.316949,67.679873 C144.039407,67.9947937 142.759322,68.2995556 141.476695,68.5954286 C141.414407,69.648127 141.349576,70.6982857 141.280932,71.7497143 C140.584322,71.9097143 139.886441,72.0659048 139.188559,72.2195556 C139.566102,68.0786032 139.894068,63.9389206 140.172458,59.8055873 C140.95678,59.6214603 141.738559,59.4360635 142.52161,59.2443175 C144.640678,62.8087619 146.805508,66.3503492 149.018644,69.8741587 C148.327119,70.0519365 147.634322,70.2271746 146.937712,70.399873 C146.394915,69.4944762 145.855932,68.5878095 145.316949,67.679873" id="Fill-65" fill="#174375"></path>
        </g>
    </g>
</svg>