<?xml version="1.0" encoding="UTF-8"?>
<svg width="200px" height="104px" viewBox="0 0 200 104" version="1.1" xmlns="http://www.w3.org/2000/svg" xmlns:xlink="http://www.w3.org/1999/xlink">
    <!-- Generator: Sketch 48.2 (47327) - http://www.bohemiancoding.com/sketch -->
    <title>Page 1</title>
    <desc>Created with Sketch.</desc>
    <defs>
        <polygon id="path-1" points="0 103.955531 199.295683 103.955531 199.295683 -2.84217094e-14 0 -2.84217094e-14"></polygon>
    </defs>
    <g id="FHF_Homepage" stroke="none" stroke-width="1" fill="none" fill-rule="evenodd" transform="translate(-54.000000, -2586.000000)">
        <g id="Group-20" transform="translate(-2.000000, 2514.000000)">
            <g id="Group-16" transform="translate(56.000000, 72.000000)">
                <g id="Page-1">
                    <path d="M28.4158273,102.632077 L27.8179856,102.642119 C26.1438849,102.669374 25.0971223,101.967912 25.0741007,100.534146 C25.0539568,99.3083807 25.705036,98.5481048 27.118705,98.4197186 L27.2884892,99.4087945 C26.3834532,99.4733462 25.8877698,99.8592221 25.8985612,100.527691 C25.9122302,101.302312 26.5230216,101.646588 27.7848921,101.627222 L28.3589928,101.617181 C29.6129496,101.597098 30.2784173,101.215526 30.2661871,100.458119 C30.2553957,99.7796083 29.7546763,99.4174014 28.8330935,99.383691 L29.0028777,98.3974841 C30.2172662,98.4591669 31.0697842,99.1627807 31.0913669,100.484657 C31.1136691,101.89547 30.0906475,102.605539 28.4158273,102.632077 Z" id="Fill-1" fill="#FFF9ED"></path>
                    <path d="M28.7545324,92.1017545 L28.125036,92.0472441 C26.8336691,91.9353545 26.2235971,92.2315752 26.1574101,93.0040441 C26.0905036,93.7757959 26.6408633,94.1717131 27.9307914,94.2828855 L28.5602878,94.3373959 C29.8502158,94.4485683 30.4610072,94.1523476 30.5279137,93.3813131 C30.5955396,92.6088441 30.0444604,92.2136441 28.7545324,92.1017545 M28.4480576,95.347989 L27.867482,95.2977821 C26.1818705,95.1528993 25.2178417,94.3639338 25.3423022,92.9330372 C25.4667626,91.5014234 26.5509353,90.891051 28.2372662,91.0359338 L28.8178417,91.0868579 C30.5041727,91.2317407 31.467482,92.019989 31.3430216,93.45232 C31.2185612,94.8832166 30.1329496,95.493589 28.4480576,95.347989" id="Fill-3" fill="#FFF9ED"></path>
                    <path d="M30.876259,85.8581683 L30.7302158,86.6191614 L28.6489209,86.6385269 C28.3107914,86.6485683 27.7043165,86.62992 27.3381295,86.60912 L27.3266187,86.6643476 C27.7920863,86.7288993 28.4863309,86.8458097 28.9316547,86.9318786 L31.9820144,87.5164303 L31.8143885,88.3864441 L26.1726619,87.3055614 L26.4093525,86.0776441 L29.0625899,86.0360441 C29.3086331,86.0432166 29.6273381,86.0539752 29.7978417,86.071189 L29.8071942,86.0224166 C29.642446,85.9743614 29.3417266,85.8674924 29.1115108,85.7835752 L26.6633094,84.7629407 L26.9,83.5357407 L32.5402878,84.6166234 L32.3733813,85.4880717 L29.3223022,84.90352 C28.8769784,84.8188855 28.1892086,84.6689821 27.7330935,84.5578097 L27.7215827,84.6130372 C28.0726619,84.7213407 28.6402878,84.9372303 28.9517986,85.06992 L30.876259,85.8581683 Z" id="Fill-5" fill="#FFF9ED"></path>
                    <path d="M32.631223,78.89232 L32.407482,79.6339476 L30.3355396,79.4431614 C29.9959712,79.4159062 29.3945324,79.3370097 29.0319424,79.2796303 L29.0161151,79.3327062 C29.4722302,79.4453131 30.1513669,79.6317959 30.5851799,79.7623338 L33.5614388,80.6545821 L33.3053237,81.5045131 L27.8017266,79.8555752 L28.1635971,78.6570648 L30.807482,78.8844303 C31.0520863,78.9152717 31.3679137,78.9590234 31.5355396,78.9927338 L31.5492086,78.9475476 C31.3909353,78.8822786 31.102446,78.7452855 30.8815827,78.6384166 L28.5499281,77.37392 L28.9117986,76.1761269 L34.4146763,77.8264993 L34.1585612,78.6757131 L31.1815827,77.7841821 C30.7484892,77.6529269 30.0779856,77.43632 29.6355396,77.2778097 L29.6189928,77.3308855 C29.9564029,77.475051 30.4995683,77.7468855 30.7959712,77.9125683 L32.631223,78.89232 Z" id="Fill-7" fill="#FFF9ED"></path>
                    <path d="M30.5382734,71.7752772 L34.108777,73.2549462 C34.7663309,73.5260634 35.332518,73.3854841 35.5929496,72.7593324 C35.8576978,72.1267255 35.5389928,71.6727117 34.8807194,71.3994428 L31.3102158,69.920491 L31.6958273,68.9981186 L35.2742446,70.4792221 C36.3792806,70.9368221 36.874964,71.8505876 36.3663309,73.0720497 C35.8576978,74.294229 34.8368345,74.6377876 33.7310791,74.1809048 L30.1526619,72.6983669 L30.5382734,71.7752772 Z" id="Fill-9" fill="#FFF9ED"></path>
                    <path d="M38.5060432,65.1232938 L38.5211511,65.0960386 C38.3067626,65.0164248 38.0211511,64.8808662 37.8146763,64.7689766 L34.6909353,63.0827421 L35.1348201,62.2679559 L40.1866187,64.9941903 L39.6779856,65.9301903 L35.6707914,65.5837628 C35.3391367,65.5514869 34.9607194,65.4668524 34.8858993,65.4539421 L34.8657554,65.4883697 C35.0448921,65.5500524 35.2815827,65.6576386 35.465036,65.7573352 L38.7952518,67.5561766 L38.3520863,68.3695283 L33.3017266,65.644011 L33.8556835,64.6226593 L37.6628777,64.9805628 C38.0269065,65.0214455 38.3434532,65.0816938 38.5060432,65.1232938" id="Fill-11" fill="#FFF9ED"></path>
                    <polygon id="Fill-13" fill="#FFF9ED" points="39.1011511 57.4942124 42.5666187 59.8489159 43.3241727 58.7414952 43.9666187 59.1790124 41.8961151 62.2064883 41.2543885 61.77184 42.0061871 60.6701572 38.5407194 58.3147366 37.7882014 59.4164193 37.1457554 58.9789021 39.2155396 55.950709 39.8579856 56.387509"></polygon>
                    <polygon id="Fill-15" fill="#FFF9ED" points="44.2263309 49.7214676 44.8702158 50.2644193 43.7831655 51.5461297 47.5313669 54.7019917 46.8831655 55.4672883 43.1356835 52.3099917 42.0493525 53.5931366 41.4061871 53.0516193"></polygon>
                    <polygon id="Fill-17" fill="#FFF9ED" points="52.3845324 49.6234207 51.6658273 50.3105379 50.1140288 48.6988966 46.3967626 47.4143172 47.178777 46.6648 49.892446 47.7585931 48.9010791 45.0172966 49.6881295 44.2613241 50.8320144 48.0117793"></polygon>
                    <path d="M60.485036,41.1825655 L61.0764029,40.453131 C61.5641727,40.9092966 62.1598561,41.1273379 62.8246043,40.7120552 C63.2159712,40.4689103 63.5915108,40.0321103 63.2699281,39.5214345 C62.9339568,38.9870897 62.5195683,39.0566621 62.0785612,39.190069 L61.3145324,39.4181517 C60.474964,39.6763586 59.7080576,39.5651862 59.2440288,38.8271448 C58.7368345,38.0216828 59.0109353,36.9838345 59.9915108,36.3705931 C60.8771223,35.8190345 61.7900719,35.752331 62.5030216,36.4774621 L62.022446,37.2929655 C61.4505036,36.7163034 60.8742446,36.7722483 60.4145324,37.0584276 C59.8109353,37.4349793 59.8361151,37.8854069 60.0339568,38.2017103 C60.261295,38.5632 60.6814388,38.6241655 61.1526619,38.4921931 L61.9094964,38.2684138 C62.703741,38.0281379 63.4907914,37.9729103 64.0584173,38.8759172 C64.5303597,39.6275862 64.4008633,40.6984276 63.2346763,41.4257103 C62.2001439,42.0726621 61.2217266,41.8847448 60.485036,41.1825655" id="Fill-19" fill="#FFF9ED"></path>
                    <path d="M65.7753237,33.2663007 L67.5307194,36.7018869 C67.8544604,37.3344938 68.3767626,37.5927007 68.9832374,37.2864386 C69.5961871,36.9751559 69.6494245,36.4214455 69.3264029,35.7902731 L67.5695683,32.3539697 L68.4638129,31.9006731 L70.2242446,35.3434317 C70.7674101,36.4071007 70.5501439,37.4219972 69.3681295,38.0230455 C68.1868345,38.6233766 67.1839568,38.2260248 66.6400719,37.1630731 L64.8810791,33.7195972 L65.7753237,33.2663007 Z" id="Fill-21" fill="#FFF9ED"></path>
                    <path d="M74.7906475,32.2898483 C75.6323741,31.9756966 75.6431655,31.4026207 75.4841727,30.9801655 C75.3230216,30.5483862 74.9489209,30.1273655 74.152518,30.4235862 L73.3561151,30.7205241 L74.0467626,32.565269 L74.7906475,32.2898483 Z M75.0971223,35.3711172 L74.1640288,35.7189793 L72.1546763,30.3489931 L74.0122302,29.6575724 C75.4618705,29.1189241 76.1820144,29.8670069 76.4539568,30.5928552 C76.7309353,31.3337655 76.6359712,32.3952828 75.1489209,32.9475586 L74.3071942,33.2609931 L75.0971223,35.3711172 Z" id="Fill-23" fill="#FFF9ED"></path>
                    <path d="M81.7979856,30.0996083 C82.6670504,29.8736772 82.7368345,29.3070566 82.622446,28.8688221 C82.5058993,28.4234152 82.1785612,27.9672497 81.3569784,28.1809876 L80.5346763,28.393291 L81.0310791,30.2968497 L81.7979856,30.0996083 Z M81.785036,33.1930703 L80.8231655,33.4433876 L79.3792806,27.9019807 L81.2972662,27.4042152 C82.7922302,27.0183393 83.4317986,27.8352772 83.6260432,28.5840772 C83.8253237,29.3493738 83.6217266,30.3936772 82.0871942,30.791029 L81.2174101,31.0148083 L81.785036,33.1930703 Z" id="Fill-25" fill="#FFF9ED"></path>
                    <path d="M90.1219424,28.9158731 L90.0276978,28.2925903 C89.8341727,27.0180524 89.402518,26.4951834 88.6356115,26.6106593 C87.8665468,26.7261352 87.6111511,27.3530041 87.8032374,28.6289766 L87.8989209,29.2508248 C88.092446,30.52608 88.5233813,31.048949 89.2917266,30.9334731 C90.0593525,30.81728 90.3161871,30.190411 90.1219424,28.9158731 M86.8874101,29.379211 L86.8003597,28.8054179 C86.5456835,27.1378317 87.0888489,26.0203697 88.5118705,25.8051972 C89.9363309,25.5907421 90.7852518,26.4980524 91.0384892,28.1642041 L91.126259,28.7394317 C91.3794964,30.4055834 90.8370504,31.5237628 89.4147482,31.7389352 C87.9895683,31.9526731 87.1406475,31.04608 86.8874101,29.379211" id="Fill-27" fill="#FFF9ED"></path>
                    <path d="M95.3469065,27.8953821 L96.2210072,27.8544993 C96.8915108,27.8222234 97.2303597,27.467189 97.2015827,26.8539476 C97.1713669,26.2414234 96.8008633,25.9208166 96.1296403,25.9530924 L95.256259,25.9939752 L95.3469065,27.8953821 Z M96.2620144,28.5645683 L95.3814388,28.6061683 L95.4936691,30.9515476 L94.498705,30.997451 L94.2246043,25.2760166 L96.1814388,25.1827752 C97.4425899,25.1225269 98.1915108,25.7085131 98.2433094,26.7965683 C98.2785612,27.5216993 97.908777,28.0811476 97.2246043,28.3479614 L98.6231655,30.8023614 L97.5310791,30.85472 L96.2620144,28.5645683 Z" id="Fill-29" fill="#FFF9ED"></path>
                    <polygon id="Fill-31" fill="#FFF9ED" points="105.967554 25.3450869 105.920791 26.1842593 104.239496 26.088149 103.961799 30.9711283 102.958921 30.9151834 103.237338 26.0314869 101.556043 25.9375283 101.603525 25.0983559"></polygon>
                    <polygon id="Fill-33" fill="#FFF9ED" points="112.974964 27.1192552 110.535396 26.7290759 110.284317 28.2912276 112.587194 28.6591724 112.460576 29.4495724 110.157698 29.0809103 109.885036 30.7793379 112.379281 31.1781241 112.249784 31.982869 108.770647 31.4262897 109.682158 25.7672552 113.10446 26.3145103"></polygon>
                    <path d="M117.391223,32.351531 C118.290504,32.5910897 119.00705,31.8552 119.323597,30.6782069 C119.63223,29.5248828 119.396259,28.5931862 118.481871,28.3500414 L117.731511,28.149931 L116.656691,32.1550069 L117.391223,32.351531 Z M116.975396,27.1292966 L118.749496,27.6019586 C120.210647,27.9914207 120.742302,29.3197517 120.30777,30.94 C119.864604,32.5932414 118.655971,33.5062897 117.249496,33.1326069 L115.489784,32.6628138 L116.975396,27.1292966 Z" id="Fill-35" fill="#FFF9ED"></path>
                    <path d="M130.954245,35.8333793 L132.175827,36.4459034 C132.377986,35.3277241 132.576547,34.4699034 132.775827,33.7849379 L132.74777,33.7705931 C132.316115,34.3400828 131.73482,35.0056828 130.954245,35.8333793 Z M132.018273,37.2621241 L130.392374,36.4459034 L129.365755,37.5662345 L128.490216,37.1272828 L132.618993,32.7843862 L133.645612,33.2993655 L132.611799,39.1943724 L131.736259,38.7547034 L132.018273,37.2621241 Z" id="Fill-37" fill="#FFF9ED"></path>
                    <path d="M136.212878,38.3577103 L136.608561,37.738731 C137.486978,36.365931 138.656043,35.932 139.836619,36.6822345 C141.071871,37.468331 140.865396,38.5987034 140.520791,39.2413517 L139.602086,38.8483034 C139.853885,38.3957241 139.992734,37.7286897 139.392014,37.3471172 C138.812158,36.9784552 138.213597,37.1333793 137.426547,38.3641655 L137.144532,38.8059862 C136.466115,39.8667862 136.366835,40.6371034 137.03518,41.0617103 C137.778345,41.5350897 138.425827,40.9412138 138.713597,40.4922207 L138.84741,40.2813517 L137.79777,39.6143172 L138.202806,38.9824276 L140.009281,40.1314483 L138.365396,42.7020414 L137.78554,42.3326621 L138.163237,41.5781241 C137.638777,41.9625655 137.063957,42.0364414 136.416475,41.6254621 C135.406403,40.9820966 135.333741,39.7312276 136.212878,38.3577103" id="Fill-39" fill="#FFF9ED"></path>
                    <path d="M142.299209,42.4096938 L142.756763,41.8344662 C143.771151,40.5563421 144.979784,40.2450593 146.076906,41.1114869 C147.225108,42.01808 146.904245,43.123349 146.49705,43.7279834 L145.621511,43.242411 C145.917914,42.8178041 146.124388,42.1687007 145.566115,41.72688 C145.027266,41.3022731 144.415755,41.3962317 143.507122,42.5395145 L143.181223,42.951211 C142.39705,43.9374179 142.220072,44.6941076 142.841655,45.1854179 C143.533022,45.7298041 144.237338,45.2069352 144.568993,44.7887834 L144.725108,44.5936938 L143.748849,43.8226593 L144.216475,43.2338041 L145.896331,44.5607007 L143.99705,46.9512662 L143.458201,46.5259421 L143.910719,45.8130041 C143.350288,46.1422179 142.770432,46.1565628 142.167554,45.681749 C141.229424,44.9401214 141.284101,43.6878179 142.299209,42.4096938" id="Fill-41" fill="#FFF9ED"></path>
                    <path d="M149.211727,47.5424883 L149.836906,48.1528607 C150.317482,48.6205021 150.811007,48.6269572 151.240504,48.1872883 C151.670719,47.749771 151.654173,47.2584607 151.173597,46.7901021 L150.548417,46.1811641 L149.211727,47.5424883 Z M149.34554,48.6656883 L148.713885,48.0502952 L147.066403,49.7307917 L146.354892,49.0357848 L150.374317,44.9381848 L151.775036,46.3045297 C152.677914,47.1853021 152.75705,48.1306262 151.992302,48.9102676 C151.483669,49.4302676 150.82036,49.5400055 150.158489,49.2215503 L149.305971,51.9140745 L148.524676,51.1523641 L149.34554,48.6656883 Z" id="Fill-43" fill="#FFF9ED"></path>
                    <polygon id="Fill-45" fill="#FFF9ED" points="156.608273 52.7200386 153.385971 55.389611 154.243525 56.4181352 153.646403 56.913749 151.29964 54.0971421 151.896763 53.6029628 152.75 54.6264662 155.973022 51.957611 155.120504 50.9341076 155.717626 50.4377766 158.063669 53.2543834 157.466547 53.74928"></polygon>
                    <path d="M157.670576,57.9739752 L158.167698,57.6418924 C159.561942,56.7123476 160.823813,56.7345821 161.625971,57.9295062 C162.310144,58.9494234 162.17705,59.9413683 161.056906,60.8149683 L160.375612,60.0747752 C161.10295,59.5311062 161.308705,58.9379476 160.934604,58.380651 C160.50295,57.7372855 159.799353,57.7781683 158.749712,58.4781959 L158.272014,58.796651 C157.228129,59.4930924 156.876331,60.1737545 157.299353,60.8034924 C157.67777,61.3679614 158.295755,61.4031062 159.09,60.9318786 L159.484245,61.8528166 C158.429568,62.4596028 157.328849,62.3290648 156.591439,61.2295338 C155.80223,60.0539752 156.27705,58.9028028 157.670576,57.9739752" id="Fill-47" fill="#FFF9ED"></path>
                    <path d="M164.925252,63.6005186 L161.509424,65.4108359 C160.879928,65.7450703 160.628849,66.2715255 160.948993,66.8711393 C161.271295,67.4750566 161.826691,67.5195255 162.454748,67.1867255 L165.870576,65.3742566 L166.343237,66.2578979 L162.920216,68.0725186 C161.861942,68.6348359 160.838921,68.43616 160.215899,67.268491 C159.592158,66.0986703 159.972014,65.0930979 161.030288,64.5322152 L164.454029,62.7175945 L164.925252,63.6005186 Z" id="Fill-49" fill="#FFF9ED"></path>
                    <polygon id="Fill-51" fill="#FFF9ED" points="168.393813 70.7869903 163.850647 72.6353214 164.834101 75.0423834 164.054245 75.3586869 162.693813 72.0321214 168.018273 69.8682041"></polygon>
                    <polygon id="Fill-53" fill="#FFF9ED" points="171.771727 80.6721545 170.963094 80.9074097 170.490432 79.2964855 165.78036 80.6700028 165.498345 79.7096166 170.208417 78.3353821 169.735036 76.7237407 170.543669 76.4884855"></polygon>
                    <path d="M172.736331,84.9973352 L168.931295,85.6944938 C168.229856,85.8221628 167.831295,86.2474869 167.954317,86.9145214 C168.078058,87.5894455 168.593885,87.7981628 169.295324,87.671211 L173.10036,86.9733352 L173.281655,87.9581076 L169.467986,88.6559834 C168.289568,88.8718731 167.37518,88.3748248 167.135612,87.0744662 C166.895324,85.7712386 167.56295,84.9270455 168.741367,84.7111559 L172.555036,84.0125628 L172.736331,84.9973352 Z" id="Fill-55" fill="#FFF9ED"></path>
                    <path d="M171.163309,92.8708524 L171.230935,93.7394317 C171.282014,94.4064662 171.648921,94.7349628 172.261871,94.6883421 C172.87554,94.6410041 173.186331,94.260149 173.135252,93.5938317 L173.067626,92.7252524 L171.163309,92.8708524 Z M170.521583,93.8032662 L170.454676,92.9253628 L168.106475,93.1061076 L168.030935,92.1170317 L173.756115,91.6759283 L173.907914,93.6232386 C174.004317,94.8776938 173.438849,95.6408386 172.34964,95.7247559 C171.62446,95.7807007 171.053237,95.4278179 170.765468,94.753611 L168.347482,96.2189352 L168.264029,95.133749 L170.521583,93.8032662 Z" id="Fill-57" fill="#FFF9ED"></path>
                    <polygon id="Fill-59" fill="#FFF9ED" points="173.246403 102.886985 173.309712 100.42613 171.723381 100.385247 171.663669 102.709109 170.86223 102.689026 170.921942 100.365164 169.197482 100.320695 169.132014 102.838212 168.315468 102.816695 168.405396 99.3079503 174.152878 99.4535503 174.063669 102.907785"></polygon>
                    <polygon id="Fill-61" fill="#FFF8ED" points="64.5364029 62.6122317 59.0989928 62.6122317 59.0989928 64.8005352 59.0989928 87.4251972 64.5364029 87.4251972"></polygon>
                    <polygon id="Fill-63" fill="#FFF8ED" points="71.2816547 78.3054014 68.6679856 78.3054014 68.6679856 72.4864221 71.2816547 72.4864221 71.2816547 62.61216 65.8442446 62.61216 65.8442446 87.4251255 71.2816547 87.4251255"></polygon>
                    <polygon id="Fill-65" fill="#FFF8ED" points="78.0269784 62.6122317 72.5895683 62.6122317 72.5895683 72.4864938 75.2032374 72.4864938 75.2032374 78.3054731 72.5895683 78.3054731 72.5895683 87.4251972 78.0269784 87.4251972"></polygon>
                    <mask id="mask-2" fill="white">
                        <use xlink:href="#path-1"></use>
                    </mask>
                    <g id="Clip-68"></g>
                    <polygon id="Fill-67" fill="#FFF8ED" mask="url(#mask-2)" points="79.3345324 87.425269 84.7719424 87.425269 84.7719424 62.6123034 79.3345324 62.6123034"></polygon>
                    <polygon id="Fill-69" fill="#FFF8ED" mask="url(#mask-2)" points="86.0798561 87.425269 91.5172662 87.425269 91.5172662 62.6123034 86.0798561 62.6123034"></polygon>
                    <polygon id="Fill-70" fill="#FFF8ED" mask="url(#mask-2)" points="98.2628777 78.3054014 95.6492086 78.3054014 95.6492086 72.4864221 98.2628777 72.4864221 98.2628777 62.61216 92.8254676 62.61216 92.8254676 87.4251255 98.2628777 87.4251255"></polygon>
                    <polygon id="Fill-71" fill="#FFF8ED" mask="url(#mask-2)" points="99.5710791 62.6122317 99.5710791 72.4864938 102.184748 72.4864938 102.184748 78.3054731 99.5710791 78.3054731 99.5710791 87.4251972 105.008489 87.4251972 105.008489 62.6122317"></polygon>
                    <polygon id="Fill-72" fill="#FFF8ED" mask="url(#mask-2)" points="111.753885 62.6122317 108.993453 62.6122317 106.316475 62.6122317 106.316475 87.4251972 111.753885 87.4251972"></polygon>
                    <polygon id="Fill-73" fill="#FFF8ED" mask="url(#mask-2)" points="116.939568 103.817103 127.2 103.817103 127.2 88.7349517 116.939568 88.7349517"></polygon>
                    <polygon id="Fill-74" fill="#FFF8ED" mask="url(#mask-2)" points="127.612446 61.308 120.431871 52.4988414 113.252014 61.308"></polygon>
                    <polygon id="Fill-75" fill="#FFF8ED" mask="url(#mask-2)" points="59.023741 61.308 64.5366906 61.308 65.8438849 61.308 71.2820144 61.308 72.5892086 61.308 78.0273381 61.308 79.3345324 61.308 84.7726619 61.308 86.0798561 61.308 91.5179856 61.308 92.8251799 61.308 98.2625899 61.308 99.571223 61.308 105.66259 61.308 106.316547 61.308 110.166906 61.308 111.566187 61.308 118.961871 52.2348966 115.795683 52.2348966 66.4194245 52.2348966"></polygon>
                    <polygon id="Fill-76" fill="#FFF8ED" mask="url(#mask-2)" points="96.957554 77.0016 100.876978 77.0016 100.876978 73.7905103 96.957554 73.7905103"></polygon>
                    <polygon id="Fill-77" fill="#FFF8ED" mask="url(#mask-2)" points="69.976259 77.0016 73.8956835 77.0016 73.8956835 73.7905103 69.976259 73.7905103"></polygon>
                    <polygon id="Fill-78" fill="#FFF8ED" mask="url(#mask-2)" points="111.775683 103.817175 111.775683 88.7292855 106.316691 88.7292855 105.662014 88.7292855 99.5713669 88.7292855 98.2627338 88.7292855 92.8253237 88.7292855 91.5174101 88.7292855 86.08 88.7292855 84.7720863 88.7292855 79.3346763 88.7292855 78.0267626 88.7292855 72.5893525 88.7292855 71.2814388 88.7292855 65.8440288 88.7292855 64.5361151 88.7292855 59.098705 88.7292855 59.098705 103.817175 68.2008633 103.817175 68.2008633 101.243713 68.2008633 99.9397683 68.2008633 96.4855338 68.2008633 95.181589 68.2008633 91.3866648 75.6699281 91.3866648 75.6699281 103.817175 81.5138129 103.817175 81.5138129 91.3866648 88.9828777 91.3866648 88.9828777 103.817175 95.1821583 103.817175 95.1821583 91.3866648 102.651942 91.3866648 102.651942 103.817175"></polygon>
                    <polygon id="Fill-79" fill="#FFF8ED" mask="url(#mask-2)" points="85.0463309 101.243785 85.0463309 99.93984 87.6751079 99.93984 87.6751079 96.4856055 85.0463309 96.4856055 85.0463309 95.1816607 87.6751079 95.1816607 87.6751079 92.6906814 82.8211511 92.6906814 82.8211511 103.817247 87.6751079 103.817247 87.6751079 101.243785"></polygon>
                    <polygon id="Fill-80" fill="#FFF8ED" mask="url(#mask-2)" points="69.508777 92.6908248 69.508777 95.1818041 71.9886331 95.1818041 71.9886331 96.485749 69.508777 96.485749 69.508777 99.9392662 71.9886331 99.9392662 71.9886331 101.243928 69.508777 101.243928 69.508777 103.81739 74.3627338 103.81739 74.3627338 92.6908248"></polygon>
                    <polygon id="Fill-81" fill="#FFF8ED" mask="url(#mask-2)" points="98.4852518 101.243785 98.4852518 99.93984 101.344245 99.93984 101.344245 96.4856055 98.4852518 96.4856055 98.4852518 95.1816607 101.344245 95.1816607 101.344245 92.6906814 96.4902878 92.6906814 96.4902878 103.817247 101.344245 103.817247 101.344245 101.243785"></polygon>
                    <polygon id="Fill-82" fill="#FFF8ED" mask="url(#mask-2)" points="131.055396 103.817175 131.055396 86.1701683 128.507194 88.0349959 128.507194 103.817175 129.897842 103.817175"></polygon>
                    <polygon id="Fill-83" fill="#FFF8ED" mask="url(#mask-2)" points="113.083453 103.817103 115.631655 103.817103 115.631655 88.7349517 113.083453 88.7349517"></polygon>
                    <path d="M134.461151,97.2055724 L139.668345,97.2055724 L139.668345,91.3865931 L134.461151,91.3865931 L134.461151,97.2055724 Z M132.363309,103.817103 L141.765468,103.817103 L141.765468,85.2993655 L132.363309,85.2993655 L132.363309,103.817103 Z" id="Fill-84" fill="#FFF8ED" mask="url(#mask-2)"></path>
                    <polygon id="Fill-85" fill="#FFF8ED" mask="url(#mask-2)" points="135.768345 95.9016276 138.360432 95.9016276 138.360432 92.6905379 135.768345 92.6905379"></polygon>
                    <path d="M120.596403,78.3055448 L125.803597,78.3055448 L125.803597,72.4865655 L120.596403,72.4865655 L120.596403,78.3055448 Z M116.939568,66.7809103 L116.939568,83.9947034 L131.055396,83.9947034 L131.055396,72.6673103 L116.939568,66.7809103 Z" id="Fill-86" fill="#FFF8ED" mask="url(#mask-2)"></path>
                    <polygon id="Fill-87" fill="#FFF8ED" mask="url(#mask-2)" points="117.037482 85.2992221 114.125971 87.4308634 127.123813 87.4308634 130.033885 85.2992221"></polygon>
                    <polygon id="Fill-88" fill="#FFF8ED" mask="url(#mask-2)" points="121.903597 77.0016 124.495683 77.0016 124.495683 73.7905103 121.903597 73.7905103"></polygon>
                    <polygon id="Fill-89" fill="#FFF8ED" mask="url(#mask-2)" points="132.363309 83.9947034 141.765468 83.9947034 141.765468 72.8853517 132.363309 72.8853517"></polygon>
                    <polygon id="Fill-90" fill="#FFF8ED" mask="url(#mask-2)" points="128.598849 66.4534179 119.544892 66.4534179 131.843453 71.5809766 140.89741 71.5809766"></polygon>
                    <polygon id="Fill-91" fill="#FFF8ED" mask="url(#mask-2)" points="115.631655 65.8013021 115.631655 84.7099366 113.083453 86.5761986 113.083453 62.6124469 128.018705 62.6124469 128.018705 65.1493297 116.285612 65.1493297 116.066187 65.1493297 115.631655 65.1493297 115.631655 65.4154262"></polygon>
                    <path d="M47.4953957,80.9145103 C48.5335252,80.9145103 48.7766906,80.2991172 48.7766906,79.7769655 C48.7766906,79.2454897 48.5428777,78.6394207 47.5608633,78.6394207 L46.5788489,78.6394207 L46.5788489,80.9145103 L47.4953957,80.9145103 Z M46.5788489,84.3737655 L45.4284892,84.3737655 L45.4284892,77.7536276 L47.7198561,77.7536276 C49.5061871,77.7536276 49.9831655,78.8538759 49.9831655,79.7489931 C49.9831655,80.6627586 49.4500719,81.772331 47.6169784,81.772331 L46.5788489,81.772331 L46.5788489,84.3737655 Z" id="Fill-92" fill="#FFF9ED" mask="url(#mask-2)"></path>
                    <path d="M46.6069784,94.6730648 L48.187554,94.6730648 C47.8134532,93.4143062 47.5702878,92.4259476 47.4206475,91.6147476 L47.3832374,91.6147476 C47.2335971,92.4259476 46.9810791,93.4143062 46.6069784,94.6730648 Z M48.4494245,95.5961545 L46.3451079,95.5961545 L45.8681295,97.2845407 L44.7364748,97.2845407 L46.7379137,90.6636855 L48.0659712,90.6636855 L50.0674101,97.2845407 L48.9357554,97.2845407 L48.4494245,95.5961545 Z" id="Fill-93" fill="#FFF9ED" mask="url(#mask-2)"></path>
                    <path d="M152.123525,77.7534124 L152.123525,82.2110676 C152.123525,83.0308745 152.525683,83.5716745 153.311295,83.5716745 C154.106259,83.5716745 154.452302,83.0308745 154.452302,82.2110676 L154.452302,77.7534124 L155.612014,77.7534124 L155.612014,82.2203917 C155.612014,83.5996469 154.85446,84.5320607 153.320647,84.5320607 C151.786835,84.5320607 150.963813,83.5996469 150.963813,82.2203917 L150.963813,77.7534124 L152.123525,77.7534124 Z" id="Fill-94" fill="#FFF9ED" mask="url(#mask-2)"></path>
                    <path d="M150.785827,95.5219917 L151.814604,95.1676745 C152.011007,95.9136055 152.459928,96.4917021 153.367122,96.4917021 C153.900216,96.4917021 154.536187,96.2958952 154.536187,95.5965848 C154.536187,94.8693021 154.087266,94.6828193 153.572878,94.5429572 L152.684388,94.3005297 C151.702374,94.0394538 151.01964,93.4613572 151.01964,92.4543503 C151.01964,91.3533848 151.926835,90.5056055 153.264245,90.5056055 C154.470719,90.5056055 155.405971,90.9990676 155.658489,92.1466538 L154.685827,92.6501572 C154.480072,91.7363917 153.881511,91.4380193 153.254892,91.4380193 C152.431871,91.4380193 152.179353,91.8941848 152.179353,92.3238124 C152.179353,92.8172745 152.553453,93.1350124 153.095899,93.2935228 L153.975036,93.5352331 C154.900935,93.7877021 155.705252,94.2166124 155.705252,95.4473986 C155.705252,96.4730538 154.91964,97.4427641 153.329712,97.4427641 C151.917482,97.4427641 151.075755,96.6595366 150.785827,95.5219917" id="Fill-95" fill="#FFF9ED" mask="url(#mask-2)"></path>
                    <polygon id="Fill-96" fill="#FFF9ED" mask="url(#mask-2)" points="15.3183453 99.4311007 15.1996403 103.307073 0.00035971223 102.844452 0.399640288 89.7949628 1.97805755 89.8437352 1.69676259 99.0158179 7.11834532 99.1807834 7.37014388 90.984149 8.94784173 91.0314869 8.69604317 99.2288386"></polygon>
                    <path d="M11.8192086,71.3409876 C10.9868345,71.1286841 10.1717266,71.0426152 9.37316547,71.0827807 C8.57460432,71.122229 7.84942446,71.2807393 7.19690647,71.55616 C6.54438849,71.8315807 5.98395683,72.2110014 5.51489209,72.6929876 C5.04654676,73.1764083 4.72784173,73.7466152 4.55877698,74.4043255 C4.38539568,75.0785324 4.38539568,75.7333738 4.55733813,76.3724359 C4.73,77.0114979 5.03647482,77.6046566 5.47676259,78.1519117 C5.91776978,78.6998841 6.47460432,79.1782841 7.15086331,79.5871117 C7.82568345,79.9966566 8.57964029,80.3072221 9.41201439,80.5202428 L9.45517986,80.5310014 C10.2882734,80.7440221 11.1033813,80.830091 11.9019424,80.7906428 C12.7005036,80.7504772 13.4235252,80.5955531 14.0753237,80.3280221 C14.7256835,80.0590566 15.2839568,79.6875255 15.7508633,79.2119945 C16.2170504,78.7364634 16.5371942,78.1626703 16.7098561,77.4884634 C16.8832374,76.8171255 16.8839568,76.1608497 16.711295,75.5217876 C16.5393525,74.8827255 16.2328777,74.2895669 15.7918705,73.7423117 C15.3515827,73.1950566 14.7947482,72.7130703 14.1213669,72.2970703 C13.4479856,71.8803531 12.6954676,71.5654841 11.8623741,71.3531807 L11.8192086,71.3409876 Z M2.82568345,74.7170428 C3.11273381,73.6002979 3.57964029,72.6370428 4.22352518,71.8251255 C4.86884892,71.0139255 5.6242446,70.3684083 6.48971223,69.8871393 C7.35589928,69.4080221 8.29402878,69.1053462 9.30482014,68.9826979 C10.3156115,68.8600497 11.3242446,68.9267531 12.3285612,69.1835255 L12.3717266,69.1950014 C13.3911511,69.45536 14.3134532,69.8864221 15.1371942,70.4853186 C15.9630935,71.0863669 16.6429496,71.8050428 17.1767626,72.6434979 C17.7105755,73.4812359 18.0630935,74.4143669 18.235036,75.442891 C18.406259,76.4692634 18.3494245,77.5422566 18.0616547,78.6582841 C17.7746043,79.7757462 17.3084173,80.7397186 16.6630935,81.5502014 C16.0192086,82.3614014 15.2674101,83.0090703 14.4084173,83.4903393 C13.5501439,83.9730428 12.6156115,84.2757186 11.6048201,84.3983669 C10.5933094,84.5217324 9.57892086,84.4528772 8.5594964,84.1925186 L8.51633094,84.1810428 C7.49690647,83.9199669 6.57460432,83.4889048 5.74942446,82.8900083 C4.92496403,82.2903945 4.24510791,81.5710014 3.71129496,80.7325462 C3.17748201,79.8948083 2.8242446,78.9616772 2.65230216,77.9331531 C2.48107914,76.9053462 2.53863309,75.8337876 2.82568345,74.7170428 Z" id="Fill-97" fill="#FFF9ED" mask="url(#mask-2)"></path>
                    <path d="M18.013741,50.8800276 C17.1864029,50.4496828 16.3777698,50.4138207 15.5892806,50.7710069 C14.8007914,51.1267586 14.1230935,51.8497379 13.5547482,52.9370759 L11.3864029,57.0841655 L16.8669784,59.9316138 L19.0245324,55.8038897 C19.2914388,55.293931 19.4727338,54.7961655 19.5669784,54.3113103 C19.661223,53.8271724 19.6676978,53.3681379 19.5856835,52.9342069 C19.5029496,52.4995586 19.3360432,52.1086621 19.0828058,51.7615172 C18.8302878,51.4129379 18.4871223,51.1260414 18.0533094,50.9001103 L18.013741,50.8800276 Z M18.7957554,49.3372414 C19.361223,49.6305931 19.8158993,49.9834759 20.1597842,50.3951724 C20.5043885,50.8083034 20.7569065,51.2601655 20.9180576,51.7521931 C21.0792086,52.2435034 21.1489928,52.7721103 21.1295683,53.3365793 C21.1101439,53.9017655 21.0094245,54.4705379 20.8274101,55.0414621 L28.4856835,53.7719448 L27.3144604,56.0126069 L20.0360432,57.1795586 L18.2274101,60.6388138 L23.471295,63.3636138 L21.6727338,66.8035034 L8.18784173,59.7967724 L12.2158993,52.0914483 C12.647554,51.2659034 13.1547482,50.5924138 13.737482,50.0695448 C14.3194964,49.5473931 14.9302878,49.1866207 15.5698561,48.9843586 C16.0698561,48.8294345 16.5935971,48.7763586 17.1432374,48.828 C17.6928777,48.8810759 18.2310072,49.0431724 18.7561871,49.3157241 L18.7957554,49.3372414 Z" id="Fill-98" fill="#FFF9ED" mask="url(#mask-2)"></path>
                    <path d="M35.9248201,44.4269352 C35.1579137,45.3292248 34.3097122,46.0120386 33.3809353,46.4746593 C32.4514388,46.9394317 31.4996403,47.1947697 30.526259,47.2435421 C29.5521583,47.2923145 28.5881295,47.14528 27.6348921,46.8038731 C26.6816547,46.4631834 25.7917266,45.9431834 24.9672662,45.2460248 L24.9334532,45.2173352 C24.1420863,44.5474317 23.4996403,43.7670731 23.0053957,42.8748248 C22.5104317,41.9818593 22.2061151,41.05088 22.0888489,40.0790179 C21.9715827,39.1085903 22.0543165,38.1274041 22.3348921,37.1340248 C22.6161871,36.1413628 23.1255396,35.2111007 23.8636691,34.3432386 C24.2758993,33.8598179 24.6866906,33.4452524 25.0946043,33.1031283 C25.502518,32.7595697 25.921223,32.4741076 26.3485612,32.2460248 C26.7773381,32.0165076 27.2169065,31.8314593 27.6672662,31.6894455 C28.1183453,31.5474317 28.5874101,31.4305214 29.0744604,31.3379972 L29.355036,33.0292524 C28.6622302,33.0443145 28.0197842,33.1540524 27.426259,33.3599007 C26.8334532,33.565749 26.268705,33.9839007 25.731295,34.6150731 C25.3097122,35.1114041 25.0514388,35.6730041 24.955036,36.2984386 C24.8600719,36.9253076 24.8996403,37.5686731 25.0751799,38.2314041 C25.2507194,38.8934179 25.555036,39.5518455 25.9874101,40.2081214 C26.4205036,40.8651145 26.9586331,41.4654455 27.602518,42.0098317 L27.6363309,42.0385214 C28.3255396,42.6223559 29.0341727,43.0806731 29.7615108,43.4141903 C30.4874101,43.7484248 31.1953237,43.9442317 31.8838129,44.0030455 C32.5723022,44.0625766 33.2219424,43.9772248 33.8341727,43.7491421 C34.4464029,43.5210593 34.9823741,43.1359007 35.4428058,42.5951007 C35.8744604,42.0872938 36.1715827,41.5156524 36.3341727,40.8794593 C36.4982014,40.2418317 36.544964,39.6321766 36.4758993,39.051211 L33.5938849,36.6133076 L31.8535971,38.65888 L30.6665468,37.6554593 L33.4708633,34.3590179 L38.0996403,38.2737214 C38.126259,39.2255007 37.9802158,40.2411145 37.6643885,41.3205628 C37.3485612,42.4007283 36.768705,43.4349903 35.9248201,44.4269352" id="Fill-99" fill="#FFF9ED" mask="url(#mask-2)"></path>
                    <polygon id="Fill-100" fill="#FFF9ED" mask="url(#mask-2)" points="53.758705 28.6461903 43.2184173 36.6886179 33.9896403 24.6676524 44.4414388 16.6926455 45.387482 17.9248662 38.0256115 23.5423007 41.1738129 27.6427697 47.7766906 22.6048662 48.7356835 23.8543007 42.1335252 28.8936386 45.3623022 33.0995421 52.8126619 27.4146869"></polygon>
                    <polygon id="Fill-101" fill="#FFF9ED" mask="url(#mask-2)" points="73.7044604 19.3907641 69.9598561 20.4436745 65.8296403 5.8528331 69.5735252 4.79992276 71.4094964 11.2837848 79.861295 8.90612966 78.0253237 2.42155034 79.6728058 1.95749517 83.8030216 16.5483366 82.1555396 17.0123917 80.2958273 10.4417434 71.8440288 12.8208331"></polygon>
                    <polygon id="Fill-102" fill="#FFF9ED" mask="url(#mask-2)" points="92.4411511 15.6223779 88.5951079 16.0405297 86.9476259 0.969136552 90.7929496 0.550984828"></polygon>
                    <polygon id="Fill-103" fill="#FFF9ED" mask="url(#mask-2)" points="109.757194 15.7169821 97.3205036 15.1446234 98.0219424 7.17241379e-05 101.908273 0.179382069 101.280216 13.7517407 109.830576 14.1455062"></polygon>
                    <polygon id="Fill-104" fill="#FFF9ED" mask="url(#mask-2)" points="126.379856 19.4488607 114.310072 16.4048883 118.038129 1.70789517 121.810072 2.65895724 118.469065 15.8303779 126.766906 17.9232883"></polygon>
                    <polygon id="Fill-105" fill="#FFF9ED" mask="url(#mask-2)" points="146.318561 29.2969434 143.142302 27.0555641 151.928633 14.6809986 162.616403 22.2242262 161.704892 23.5080883 154.191942 18.2069572 151.058129 22.6208607 157.772518 27.3589572 156.860288 28.6435366 150.145899 23.9047228"></polygon>
                    <path d="M163.907914,36.2984386 L168.567626,41.5407559 L171.830935,33.9494731 L163.907914,36.2984386 Z M172.867626,31.9074869 L175.492086,34.8603697 L168.648921,50.3226593 L165.685612,46.9874869 L167.482734,43.0613076 L161.953957,36.8399559 L157.81223,38.1295559 L156.647482,36.8191559 L172.867626,31.9074869 Z" id="Fill-106" fill="#FFF9ED" mask="url(#mask-2)"></path>
                    <path d="M185.955755,59.6928441 C186.780935,59.2574786 187.269424,58.6141131 187.421942,57.7641821 C187.57446,56.9149683 187.36223,55.9481269 186.785971,54.8643752 L184.590288,50.7323476 L179.129137,53.6163752 L181.314748,57.7297545 C181.585252,58.2389959 181.893885,58.6693407 182.239928,59.0215062 C182.586691,59.374389 182.96223,59.639051 183.367986,59.8183614 C183.773022,59.9969545 184.191007,60.081589 184.621942,60.0708303 C185.052878,60.0615062 185.483813,59.9424441 185.916187,59.7136441 L185.955755,59.6928441 Z M186.786691,61.2098097 C186.224101,61.5074648 185.67446,61.68032 185.138489,61.7305269 C184.602518,61.7778648 184.085971,61.7305269 183.588849,61.5834924 C183.091007,61.4357407 182.614748,61.1940303 182.159353,60.8576441 C181.703957,60.5212579 181.291007,60.1167338 180.921942,59.6426372 L177.626978,66.6508028 L176.439928,64.4180303 L179.605396,57.7792441 L177.773022,54.3321821 L172.547122,57.0928441 L170.726259,53.6651476 L184.163669,46.5673269 L188.244245,54.2461131 C188.680935,55.0680717 188.949281,55.8663614 189.051439,56.6402648 C189.152158,57.4148855 189.103957,58.1220855 188.907554,58.7611476 C188.753597,59.2596303 188.498921,59.7200993 188.144245,60.1425545 C187.789568,60.5628579 187.35,60.9128717 186.826259,61.1890097 L186.786691,61.2098097 Z" id="Fill-107" fill="#FFF9ED" mask="url(#mask-2)"></path>
                    <polygon id="Fill-108" fill="#FFF9ED" mask="url(#mask-2)" points="180.2 74.2590124 179.245324 70.5451366 193.976259 66.7824883 194.942446 70.5401159 188.288489 77.9592607 197.694964 81.2542676 198.125899 82.9290262 183.394245 86.6909572 182.858993 84.6088055 193.95036 81.7757021 185.644604 78.6578538 185.623022 78.5717848 192.110072 71.2186262"></polygon>
                    <path d="M185.475899,96.959989 C185.529856,97.4018097 185.608273,97.7876855 185.711151,98.1183338 C185.814748,98.4482648 185.939209,98.7308579 186.084532,98.9639614 C186.230576,99.1977821 186.386691,99.3900028 186.552878,99.5427752 C186.719065,99.6941131 186.884532,99.8131752 187.049281,99.8978097 C187.439209,100.096486 187.86295,100.169644 188.321223,100.114417 C188.661511,100.078554 188.977338,99.9465821 189.269424,99.7192166 C189.517626,99.5205407 189.773741,99.2236028 190.039928,98.8276855 C190.306115,98.4303338 190.520504,97.8601269 190.682374,97.1177821 L190.885971,96.1824993 C191.203237,94.3434924 191.67518,92.9922097 192.301799,92.1293683 C192.928417,91.2665269 193.81259,90.8232717 194.954317,90.7996028 L194.998201,90.7988855 C195.635612,90.7859752 196.21259,90.9093407 196.729856,91.1732855 C197.245683,91.4350786 197.691007,91.8101959 198.065108,92.29792 C198.438489,92.7856441 198.732014,93.3666097 198.946403,94.0429683 C199.160072,94.7171752 199.276619,95.4616717 199.293165,96.2743062 C199.319784,97.5732303 199.152878,98.7674372 198.789568,99.8540579 C198.426259,100.939961 197.855036,101.979244 197.075899,102.971189 L196.121942,102.037341 C196.51259,101.571851 196.85,101.038941 197.134173,100.442196 C197.37518,99.934389 197.581655,99.3383614 197.752878,98.6562648 C197.923381,97.9727338 197.970863,97.2253683 197.895324,96.4141683 C197.817626,95.5879062 197.631295,94.9854234 197.334173,94.6081545 C197.03777,94.229451 196.72482,93.9626372 196.395324,93.8069959 C196.006115,93.6377269 195.57518,93.5803476 195.101799,93.6341407 C194.76223,93.7001269 194.447122,93.855051 194.155036,94.0974786 C193.893165,94.3097821 193.629137,94.6174786 193.363669,95.02272 C193.096763,95.4272441 192.891007,96.0074924 192.743525,96.7648993 L192.560072,97.5438234 C192.520504,97.7962924 192.467986,98.1298097 192.402518,98.5458097 C192.336331,98.9603752 192.235612,99.4021959 192.096043,99.8705545 C191.957914,100.338913 191.783094,100.815161 191.570863,101.300017 C191.358633,101.785589 191.093165,102.218803 190.77446,102.60181 C190.456475,102.986251 190.077338,103.304706 189.638489,103.557175 C189.198921,103.810361 188.690288,103.943051 188.11259,103.954527 C187.401079,103.968872 186.797482,103.830444 186.302518,103.53781 C185.806835,103.245175 185.402518,102.862168 185.088849,102.388072 C184.77446,101.913975 184.534173,101.38752 184.366547,100.806554 C184.198921,100.226306 184.079496,99.6604028 184.008273,99.1066924 C183.93777,98.5544166 183.901079,98.0458924 183.898921,97.5789683 C183.896763,97.1149131 183.90036,96.76992 183.910432,96.5482924 C183.908273,96.4306648 183.914029,96.3481821 183.928417,96.3044303 C183.947842,95.8611752 184.034173,95.3634097 184.185971,94.8140028 C184.33777,94.2638786 184.522662,93.7273821 184.741367,93.2066648 C184.960791,92.6837959 185.194604,92.2068303 185.445683,91.7728993 C185.696043,91.3389683 185.93705,91.0004303 186.169424,90.7594372 L187.169424,91.8037407 C186.966547,92.0289545 186.75,92.3115476 186.519784,92.6479338 C186.289568,92.9857545 186.086691,93.3694786 185.910432,93.8026924 C185.733453,94.2337545 185.603237,94.713589 185.518345,95.2414786 C185.432014,95.7672166 185.418345,96.3402924 185.475899,96.959989" id="Fill-109" fill="#FFF9ED" mask="url(#mask-2)"></path>
                </g>
            </g>
        </g>
    </g>
</svg>