<?xml version="1.0" encoding="UTF-8"?>
<svg width="132px" height="132px" viewBox="0 0 132 132" version="1.1" xmlns="http://www.w3.org/2000/svg" xmlns:xlink="http://www.w3.org/1999/xlink">
    <!-- Generator: Sketch 48.2 (47327) - http://www.bohemiancoding.com/sketch -->
    <title>Group 23</title>
    <desc>Created with Sketch.</desc>
    <defs></defs>
    <g id="FHF_Homepage" stroke="none" stroke-width="1" fill="none" fill-rule="evenodd" transform="translate(-1037.000000, -2585.000000)">
        <g id="Group-20" transform="translate(-2.000000, 2514.000000)">
            <g id="Group-16" transform="translate(56.000000, 72.000000)">
                <g id="Group-23" transform="translate(984.000000, 0.000000)">
                    <g id="Group-15">
                        <g id="Group-14">
                            <g id="Group-9">
                                <g id="Group-8">
                                    <g id="Group-22">
                                        <circle id="Oval-2" stroke="#FEF8EC" stroke-width="0.5" cx="65" cy="65" r="65"></circle>
                                        <circle id="Oval-2" stroke="#FEF8EC" stroke-width="0.5" cx="65.4744526" cy="65.4744526" r="50.5148197"></circle>
                                        <g id="Page-1" transform="translate(4.744526, 4.744526)" fill="#FFF9ED">
                                            <path d="M4.96451975,59.9584451 L4.96451975,59.9196062 C4.70561828,59.9637413 4.3458461,59.9902224 4.07769815,59.9955186 L0.0193335513,60.0705483 L0,58.9548124 L6.56332038,58.8321168 L6.58601629,60.1138007 L2.4024039,62.1131217 C2.05355939,62.2764217 1.63074303,62.4105924 1.54836528,62.441487 L1.55004646,62.4900356 C1.76103435,62.4476659 2.05692174,62.4220676 2.29733025,62.417654 L6.6238428,62.3355627 L6.64233577,63.4521813 L0.0790153837,63.5766423 L0.0554788864,62.1784417 L4.04575576,60.3071125 C4.43074561,60.1341029 4.78043071,60.0114072 4.96451975,59.9584451" id="Fill-1"></path>
                                            <path d="M5.18164114,52.5887072 L5.45028511,50.9010839 C4.05151519,51.0840017 2.96054752,51.1731626 2.07447777,51.1933847 L2.06810317,51.2329096 C2.90317609,51.5334831 3.90945262,51.9728534 5.18164114,52.5887072 Z M6.47477479,50.7797515 L6.11688639,53.0280776 L7.82619051,53.8268492 L7.63404178,55.0364964 L0.948905109,51.7596025 L1.17474817,50.3413004 L8.54014599,49.3430657 L8.34799725,50.5508745 L6.47477479,50.7797515 Z" id="Fill-3"></path>
                                            <polygon id="Fill-5" points="4.58289217 37.9562044 5.53898344 38.3130468 4.87033867 40.3530905 10.4379562 42.4327834 10.0390689 43.649635 4.47145138 41.5689981 3.80192215 43.6080978 2.84671533 43.2512554"></polygon>
                                            <path d="M7.22414726,31.5178822 L11.1886039,33.7246472 C11.9193314,34.1316955 12.6015747,34.0480672 12.9955095,33.3602665 C13.3937733,32.6664923 13.0864176,32.0956007 12.35569,31.6885524 L8.39036763,29.480934 L8.97131334,28.4671533 L12.9444279,30.6798918 C14.1729852,31.3625724 14.6240622,32.4872886 13.8543741,33.828756 C13.0864176,35.1685167 11.8448734,35.4279353 10.6163161,34.743548 L6.64233577,32.5316629 L7.22414726,31.5178822 Z" id="Fill-7"></path>
                                            <path d="M15.6011949,24.0927111 L16.2751124,23.245814 C16.7932366,22.5960633 16.7505047,21.9777821 16.1771852,21.484453 C15.6047559,20.9911238 15.0136314,21.0642439 14.494617,21.7139945 L13.8206996,22.5618172 L15.6011949,24.0927111 Z M16.9454689,23.8094865 L16.2644294,24.6647138 L18.4597802,26.552878 L17.6914965,27.5182482 L12.3357664,22.9098318 L13.8465167,21.0124119 C14.8204477,19.7878819 15.957294,19.5907354 16.9748471,20.4653997 C17.6549963,21.0512859 17.8544118,21.8704159 17.5365934,22.7321222 L20.8759124,23.5179317 L20.0337381,24.5777101 L16.9454689,23.8094865 Z" id="Fill-9"></path>
                                            <path d="M23.6457406,17.504908 L24.9904369,16.4357695 C23.76876,15.6741424 22.8499,15.0403471 22.1401729,14.4878993 L22.1089449,14.5138232 C22.5641166,15.2682989 23.0599792,16.2373174 23.6457406,17.504908 Z M25.8771226,17.0025202 L24.0867177,18.4265483 L24.8929677,20.1107096 L23.9296315,20.8759124 L20.8759124,14.1830697 L22.0067442,13.2846715 L28.4671533,17.2689109 L27.5038171,18.0341137 L25.8771226,17.0025202 Z" id="Fill-11"></path>
                                            <polygon id="Fill-13" points="29.5612097 8.54014599 32.6624354 13.695698 35.5258228 12.1187791 36.0583942 13.0031745 32.1009504 15.1824818 28.4671533 9.14164193"></polygon>
                                            <polygon id="Fill-15" points="39.1203062 3.79562044 41.1959217 9.13128116 44.2425373 8.10466871 44.5985401 9.02061812 40.3878227 10.4379562 37.9562044 4.18804858"></polygon>
                                            <polygon id="Fill-17" points="52.1310075 7.38449682 50.8897857 7.59124088 50.416186 4.85347602 47.4452555 0.943554355 48.797201 0.719505734 50.8562894 3.73232215 51.7755752 0.225870154 53.1386861 0 51.6574079 4.64673197"></polygon>
                                            <polygon id="Fill-19" points="72.7506363 7.59124088 71.6064359 7.36835622 72.1630273 4.40153326 70.0228213 3.9855989 69.4653682 6.95154436 68.3211679 6.7295372 69.5851302 0 70.7293305 0.223762157 70.1977254 3.05720532 72.3379315 3.47401718 72.8703982 0.640574019 74.0145985 0.862581179"></polygon>
                                            <path d="M81.7663137,7.52977908 L82.0325648,6.77859492 C82.5789885,5.23683866 82.4406424,4.38437124 81.5827223,4.03081764 C80.7248022,3.67726405 80.0939786,4.21275238 79.5475549,5.75450864 L79.2813038,6.50569281 C78.73401,8.04744907 78.8723561,8.89897868 79.7302762,9.25253227 C80.5881963,9.60608587 81.2190199,9.07247315 81.7663137,7.52977908 M78.1649636,6.01334364 L78.4112023,5.31936576 C79.1255557,3.3058921 80.336737,2.40278305 81.9281526,3.057373 C83.5195682,3.71477637 83.8632583,5.25840824 83.148905,7.2718819 L82.9035364,7.96585977 C82.1883129,9.97839562 80.9771317,10.8824425 79.385716,10.2269147 C77.7943004,9.57044917 77.4506103,8.02681729 78.1649636,6.01334364" id="Fill-21"></path>
                                            <path d="M89.6289681,13.6680931 L88.8231341,13.1725245 L89.6690815,10.7510585 C89.8001186,10.3527851 90.0746727,9.65717057 90.2520631,9.24071115 L90.1932301,9.20433915 C89.9249159,9.71627507 89.5014965,10.4719034 89.2180284,10.9529231 L87.2747563,14.2427707 L86.350365,13.6744582 L89.9445269,7.59124088 L91.245093,8.39142491 L90.1834246,11.4875916 C90.0737813,11.7694746 89.9275901,12.1350132 89.8375578,12.3250569 L89.8883681,12.3577917 C90.012274,12.1877526 90.2591944,11.8840464 90.4526302,11.6530842 L92.639257,9.24889485 L93.9416058,10.0490789 L90.3492267,16.1313869 L89.4248353,15.5639836 L91.3681074,12.2741361 C91.6515756,11.7931164 92.1079771,11.0593112 92.4271016,10.5773822 L92.3673772,10.5419195 C92.099063,10.901093 91.6159192,11.467587 91.3315597,11.7722025 L89.6289681,13.6680931 Z" id="Fill-23"></path>
                                            <polygon id="Fill-25" points="100.893042 17.013481 98.690823 14.9183893 97.4487469 16.4518905 99.5278932 18.4297479 98.9003088 19.2031166 96.8211624 17.2262046 95.470852 18.8930127 97.7228241 21.0344309 97.0830197 21.8248175 93.9416058 18.8381773 98.4420586 13.2846715 101.532847 16.2240398"></polygon>
                                            <path d="M103.002024,23.3624812 L103.670827,22.7879733 C105.157058,21.5114942 106.605706,21.475472 107.615318,22.8498575 C108.673617,24.2907456 108.017625,25.5542936 107.396654,26.1786785 L106.536519,25.3344658 C106.984097,24.8975812 107.390675,24.1605115 106.875619,23.459464 C106.379355,22.783355 105.663572,22.723318 104.331944,23.8677157 L103.853617,24.2768909 C102.705632,25.2642687 102.305887,26.1389617 102.877317,26.9185191 C103.515371,27.7858228 104.450671,27.3452436 104.936686,26.9277555 L105.163891,26.7319425 L104.26532,25.506264 L104.948644,24.9197487 L106.497228,27.028433 L103.716098,29.4160584 L103.219833,28.7390257 L103.920241,27.9954905 C103.199334,28.2374858 102.539925,28.0915497 101.984724,27.3360071 C101.120319,26.1583582 101.515793,24.6380366 103.002024,23.3624812" id="Fill-27"></path>
                                            <path d="M110.086362,31.9775308 L110.582802,32.8969887 C110.964408,33.604602 111.5271,33.7865597 112.177243,33.4384667 C112.827386,33.0921317 112.983738,32.524283 112.603016,31.8166697 L112.105692,30.8972118 L110.086362,31.9775308 Z M109.834608,33.3092504 L109.332867,32.3801233 L106.843597,33.7127218 L106.277372,32.6640476 L112.353029,29.4160584 L113.466045,31.4764878 C114.184206,32.8046913 113.933335,33.9148971 112.778802,34.5328501 C112.008524,34.9451118 111.209095,34.8334759 110.566019,34.2339823 L108.622657,37.0072993 L108.002548,35.8575375 L109.834608,33.3092504 Z" id="Fill-29"></path>
                                            <path d="M114.88342,44.1064901 L115.644784,43.8682244 C117.20768,43.3819499 117.77193,42.7636992 117.463648,41.8744103 C117.155366,40.9860071 116.313662,40.8070865 114.750766,41.2951325 L113.990336,41.5333981 C112.428374,42.0205584 111.86319,42.6379233 112.171472,43.5272122 C112.479754,44.4156154 113.320524,44.5945361 114.88342,44.1064901 M113.614793,40.3571275 L114.317302,40.1374625 C116.358503,39.5014969 117.877493,39.9177975 118.450151,41.5679422 C119.021874,43.2154297 118.060594,44.4076437 116.020327,45.044495 L115.317818,45.26416 C113.276617,45.9001256 111.756693,45.4829393 111.184969,43.8336803 C110.613246,42.1861929 111.573592,40.9930931 113.614793,40.3571275" id="Fill-31"></path>
                                            <path d="M119.775187,49.3430657 L119.929142,50.4381615 L115.662257,51.228125 C115.014214,51.3482208 114.593522,51.4051551 114.290983,51.4487454 L114.305304,51.5448221 C114.501328,51.5279197 114.836986,51.5110173 115.548581,51.5492701 L118.347521,51.715625 L118.48447,52.686177 L115.83859,53.6069115 C115.164589,53.8390967 114.836091,53.913823 114.642752,53.9502965 L114.656179,54.0472628 C114.958718,54.004562 115.378515,53.9476277 116.036404,53.8844662 L120.356994,53.4832573 L120.510949,54.5801323 L113.512256,55.0364964 L113.318022,53.6593978 L115.958532,52.7689097 C116.500955,52.5856524 116.991463,52.4673358 117.330701,52.4015055 L117.31638,52.30276 C116.971771,52.3303376 116.467837,52.351688 115.897666,52.3321168 L113.112152,52.185333 L112.919708,50.8180201 L119.775187,49.3430657 Z" id="Fill-33"></path>
                                            <path d="M115.737999,63.263824 L115.736104,63.301513 C116.029824,63.2741028 116.436294,63.26982 116.739489,63.2809553 L121.312047,63.44199 L121.264672,64.5255474 L113.868613,64.2625813 L113.92262,63.0197024 L118.75384,61.3228428 C119.155573,61.1866486 119.640685,61.0812909 119.736381,61.057307 L119.738276,61.0093392 C119.496667,61.0384625 119.161258,61.045315 118.891225,61.0350362 L114.016421,60.8628662 L114.062847,59.7810219 L121.459854,60.0414183 L121.40111,61.3982207 L116.793496,62.9803003 C116.349126,63.1250601 115.94834,63.2244219 115.737999,63.263824" id="Fill-35"></path>
                                            <path d="M5.54947482,84.2005431 C6.00903134,85.258735 7.25934821,85.3767183 8.6245542,84.7611927 C9.96103792,84.1593861 10.6683241,83.2018002 10.2006895,82.1234871 L9.81652893,81.2408983 L5.17249486,83.3344171 L5.54947482,84.2005431 Z M10.2096652,79.7080292 L11.1180074,81.7988042 C11.8656843,83.5191663 11.0067085,85.0739858 9.12719415,85.9218198 C7.21357207,86.7861165 5.41663426,86.3297312 4.69588448,84.6733911 L3.79562044,82.6018227 L10.2096652,79.7080292 Z" id="Fill-37"></path>
                                            <path d="M13.2281973,93.9282062 L13.8300731,93.480919 C15.065058,92.5658011 15.3976513,91.7870172 14.9004496,90.9680801 C14.4049362,90.1482092 13.626634,90.1930313 12.3924932,91.1090829 L11.7897733,91.5545025 C10.5547883,92.4696204 10.222195,93.2493381 10.7185526,94.069209 C11.2157543,94.8881461 11.9940565,94.843324 13.2281973,93.9282062 M11.161729,90.4628977 L11.7171767,90.0501608 C13.3294947,88.8539711 14.7594773,88.8698456 15.6804401,90.3900618 C16.6014029,91.9093441 16.0712795,93.3782017 14.4589615,94.5743914 L13.9035137,94.9861945 C12.2911957,96.183318 10.8595249,96.1655759 9.93940621,94.6472273 C9.01928756,93.1279449 9.54941097,91.6581536 11.161729,90.4628977" id="Fill-39"></path>
                                            <path d="M19.9494792,95.8394161 L20.7392505,96.6629729 L17.6945586,99.899229 C17.2305793,100.391523 16.9194296,100.69334 16.6952187,100.911422 L16.7647698,100.984116 C16.9166841,100.85069 17.1839069,100.633529 17.7952247,100.236013 L20.2057202,98.6855179 L20.904892,99.4124563 L19.2768466,101.780067 C18.8613702,102.380021 18.635329,102.641351 18.4980571,102.789499 L18.5676082,102.862193 C18.7918191,102.644112 19.1029688,102.341374 19.6090448,101.893249 L22.9328564,98.948688 L23.7226277,99.7694843 L18.2207677,104.379562 L17.228749,103.345285 L18.8696065,101.0062 C19.2063804,100.526789 19.5404088,100.132033 19.779262,99.8716238 L19.7097109,99.7989299 C19.441573,100.030814 19.0379934,100.351955 18.5566264,100.679538 L16.1671793,102.240155 L15.1824818,101.214159 L19.9494792,95.8394161 Z" id="Fill-41"></path>
                                            <path d="M26.5319075,108.941815 L26.5628887,108.964524 C26.6868132,108.714732 26.8873301,108.387732 27.0491205,108.152474 L29.4811403,104.592717 L30.3649635,105.264884 L26.4303582,111.021898 L25.4157257,110.249815 L26.4226129,105.394775 C26.5103928,104.992384 26.6652986,104.543668 26.6919768,104.453743 L26.6541109,104.423768 C26.556004,104.633592 26.3950741,104.905184 26.2504955,105.115917 L23.6566852,108.910024 L22.7737226,108.237857 L26.7083279,102.481752 L27.8141826,103.32196 L26.8245072,107.932658 C26.7229579,108.372291 26.6041969,108.751066 26.5319075,108.941815" id="Fill-43"></path>
                                            <polygon id="Fill-45" points="37.1347175 110.335272 35.0496265 115.09619 36.4337971 115.833849 36.0475756 116.715328 32.2627737 114.700916 32.6498366 113.818508 34.0247513 114.551528 36.1090008 109.788754 34.7332447 109.05759 35.1194661 108.175182 38.9051095 110.189595 38.518888 111.072003"></polygon>
                                            <path d="M45.8027769,117.702687 L45.8408445,117.712035 C45.8789121,117.449447 45.9680461,117.094232 46.0488237,116.834194 L47.2651306,112.886035 L48.3941606,113.177515 L46.4276429,119.562044 L45.1296299,119.227224 L44.4481266,114.62472 C44.3961318,114.242312 44.3961318,113.795318 44.3914894,113.707789 L44.3432085,113.694192 C44.3181396,113.91174 44.2494322,114.20492 44.1779393,114.437765 L42.8817833,118.646812 L41.7518248,118.355331 L43.7183425,111.970803 L45.1324153,112.336216 L45.7452112,116.716072 C45.795349,117.136722 45.8083477,117.508933 45.8027769,117.702687" id="Fill-47"></path>
                                            <path d="M52.2222284,117.814843 L52.3192968,116.898067 C52.532063,114.861095 53.6615867,113.714205 55.5186334,113.88541 C57.4629436,114.0649 57.9022028,115.449267 57.882593,116.364202 L56.5520691,116.444282 C56.5756008,115.79628 56.3373419,114.968789 55.3931307,114.881345 C54.4802952,114.797584 53.862587,115.309358 53.6713916,117.134625 L53.6017768,117.789991 C53.4370546,119.362132 53.7851283,120.280748 54.8371933,120.377396 C56.0078975,120.48601 56.419703,119.455098 56.4902982,118.789607 L56.5226544,118.477572 L54.868569,118.323856 L54.9675984,117.38683 L57.8119978,117.650081 L57.4129386,121.459854 L56.5001031,121.375172 L56.4922592,120.317566 C56.1020245,121.043807 55.4627455,121.45249 54.4430366,121.359524 C52.8536635,121.21041 52.0094622,119.850895 52.2222284,117.814843" id="Fill-49"></path>
                                            <polygon id="Fill-51" points="67.2879648 113.868613 67.3722628 114.941656 65.2127183 115.109055 65.705246 121.360167 64.4180438 121.459854 63.9236218 115.209682 61.7631301 115.377081 61.6788321 114.304978"></polygon>
                                            <path d="M76.4042866,115.79391 L76.2081173,115.021491 C75.8066968,113.434725 75.2100152,112.830953 74.2818438,113.07973 C73.3545806,113.326643 73.1202673,114.151239 73.5216878,115.738005 L73.7187653,116.512287 C74.1201858,118.098121 74.7177756,118.700962 75.6450388,118.453117 C76.5732101,118.205272 76.8066153,117.380676 76.4042866,115.79391 M72.4927072,116.806719 L72.3119771,116.093001 C71.7870426,114.021726 72.3083444,112.537453 74.0284585,112.078101 C75.7476644,111.619681 76.9083327,112.653921 77.4341754,114.726127 L77.6149054,115.439846 C78.1398399,117.512984 77.6194464,118.995394 75.8984241,119.454746 C74.17831,119.913165 73.0185499,118.878926 72.4927072,116.806719" id="Fill-53"></path>
                                            <path d="M80.6569343,110.444016 L81.7096933,109.967378 L83.7816423,113.908562 C84.0958848,114.50962 84.280514,114.903006 84.4129248,115.18661 L84.5071043,115.145442 C84.4306417,114.956982 84.312218,114.63404 84.1387785,113.925944 L83.4664674,111.138389 L84.3989377,110.718472 L86.1156156,113.034878 C86.5501467,113.625872 86.7235862,113.923199 86.8177657,114.10251 L86.9119452,114.060427 C86.778602,113.776823 86.5949053,113.383436 86.3356786,112.757678 L84.6385826,108.649076 L85.6904091,108.175182 L88.2481752,114.886539 L86.9240673,115.483937 L85.2390935,113.163872 C84.8922145,112.688149 84.6273929,112.243531 84.4586158,111.931566 L84.3653688,111.973649 C84.4959146,112.302081 84.6684216,112.789697 84.8194818,113.353246 L85.5067124,116.123419 L84.1919293,116.715328 L80.6569343,110.444016 Z" id="Fill-55"></path>
                                            <path d="M94.9508347,108.469716 L94.9829495,108.447913 C94.7989404,108.239883 94.571533,107.930108 94.414431,107.6921 L92.0318611,104.083818 L92.9354149,103.430657 L96.7883212,109.266408 L95.7511004,110.015863 L91.7219968,107.392318 C91.3895654,107.17157 91.0389066,106.867246 90.9659974,106.810923 L90.9260709,106.839085 C91.083173,107.005327 91.2723898,107.256054 91.4130005,107.470443 L93.9535404,111.316734 L93.0508545,111.970803 L89.1970803,106.134143 L90.3280415,105.315648 L94.1410213,107.841082 C94.5020956,108.089084 94.8032802,108.33436 94.9508347,108.469716" id="Fill-57"></path>
                                            <path d="M107.551889,93.619674 C108.20139,92.6703468 107.80298,92.0517162 107.336932,91.7153179 C106.860693,91.373218 106.172277,91.1974167 105.557983,92.0954289 L104.942764,92.9934411 L106.978363,94.458769 L107.551889,93.619674 Z M110.072993,96.6862194 L109.352148,97.7372263 L103.430657,93.4761821 L104.864934,91.37987 C105.983263,89.7453927 107.265589,90.0171721 108.066116,90.5930402 C108.883321,91.1831625 109.542088,92.3843133 108.395036,94.0606027 L107.745535,95.0108802 L110.072993,96.6862194 Z" id="Fill-59"></path>
                                            <path d="M112.792753,85.5099101 L113.476225,84.1104447 C112.144932,83.9201374 111.121462,83.7265059 110.303208,83.5204089 L110.286687,83.5536503 C110.975376,84.0231859 111.784935,84.6572667 112.792753,85.5099101 Z M114.446652,84.2616934 L113.536225,86.124046 L114.898822,87.2476073 L114.408391,88.2481752 L109.124088,83.7306611 L109.697996,82.5547445 L116.715328,83.5295503 L116.225767,84.5309492 L114.446652,84.2616934 Z" id="Fill-61"></path>
                                        </g>
                                    </g>
                                </g>
                            </g>
                        </g>
                    </g>
                    <g id="Group-21" transform="translate(44.000000, 33.000000)" fill="#FFF9ED">
                        <path d="M44.1616415,39.0257816 C43.362281,39.0682041 42.5580225,39.0938549 41.7567027,39.1017474 C39.9914482,39.116546 38.2261937,39.2092835 36.4638781,39.2615716 C34.9151171,39.3079404 33.1214539,39.1560087 31.5991423,39.4361943 C31.514896,39.4519795 31.4786505,39.4993348 31.4159556,39.5289318 C31.4443642,39.3345777 31.4502419,39.1550222 31.3610975,39.0810295 C31.1299099,38.887662 30.3912851,39.1017474 30.1150355,39.0968146 C29.5693936,39.0879355 29.0364865,39.0741235 28.4879058,39.0879355 C26.0859058,39.1481162 23.6731301,39.2487462 21.2721097,39.1964581 C19.0082345,39.1500893 16.7365224,39.3917987 14.4785249,39.3039941 C13.5263454,39.2684776 12.5124506,39.3474031 11.5592916,39.4016644 C10.492498,39.4618451 9.42178588,39.395745 8.35401263,39.4085704 C7.35089354,39.4184361 6.3301415,39.4342212 5.32408359,39.4796034 C4.07312356,39.5338647 2.77024427,39.4036376 1.52908032,39.523999 C1.22932013,39.5516229 0.488736114,39.4273152 0.251670861,39.567408 C-0.0490689437,39.745977 -0.00106812796,40.3280528 0.00872795687,40.6496743 C0.0185240417,41.1330931 0.0694636829,41.1340797 0.470123553,41.1686096 C0.593554222,41.1794618 0.721882933,41.1715693 0.846293211,41.174529 C1.70540985,41.4261041 2.61840496,41.5800089 3.46870512,41.8345437 C4.50904933,42.1443264 5.51608685,42.5014644 6.49961377,42.9631787 C8.41278914,43.8579968 10.3132296,45.1809859 11.5161888,46.9666758 C12.7377606,48.7819629 13.1903397,51.1842585 12.804374,53.3300461 C12.393918,55.6277654 11.2497353,56.9556873 9.26994656,58.0448596 C9.23761948,58.0675506 9.25917087,58.0961612 9.2395787,58.1208254 C8.58520023,58.5046007 8.83402079,59.3500904 8.84185766,60.172889 C8.84871491,60.6523615 8.77524428,60.8842053 9.31500855,60.9749696 C9.65885113,61.0321906 10.0791032,60.923668 10.4366603,60.9266277 C11.0880999,60.9325471 11.7336619,60.8792724 12.3880404,60.8713799 C12.8562932,60.8634873 13.5410396,61.0617877 13.9632508,60.8506619 C14.3257059,60.6681466 14.5676692,60.1206008 14.8772255,59.8433749 C15.4091529,59.3648889 16.4671301,57.2506715 19.965312,57.0849279 C22.0077957,56.7850109 24.521471,58.3201123 26.2602761,59.4359219 C26.7667337,59.7614897 27.1095967,60.2044592 27.5533593,60.5921808 C27.934427,60.9276143 28.2136154,60.8555948 28.697542,60.8832187 C29.1520803,60.9118292 29.5880061,60.9078829 30.0415649,60.9147889 C30.3609172,60.9187352 30.9290901,61.1032236 31.2190543,60.916762 C31.6833887,60.6198048 31.5286105,59.0146569 31.4237924,58.5203858 C31.3366073,58.1060268 31.4531807,58.1306911 30.9183144,58.0547253 C30.8428846,58.0428864 30.769414,58.0448596 30.6939841,58.0379536 C30.5382264,57.9116727 30.3442639,57.7686202 30.313896,57.7488888 C29.8622965,57.450945 29.4586978,57.1411623 29.0599972,56.7702124 C27.9932035,55.7747642 27.1399645,54.5741097 26.8147345,53.1258263 C26.5130151,51.7831059 26.4885249,50.2568836 27.1752304,49.0641216 C28.394843,46.947931 30.1679343,46.6894499 30.0797696,46.4960824 C30.2227924,46.4881898 30.3716929,46.4931227 30.4647557,46.3993986 C30.6234523,46.2376013 30.6587182,45.8696111 30.6763512,45.5391104 C31.1152158,45.6081703 31.9400461,45.3644877 32.1898463,45.3230518 C33.8306905,45.0487856 35.4196154,44.7005267 37.0056016,44.2082288 C40.1383895,43.2384314 43.0086424,41.7911346 44.973737,39.1678476 C45.1618218,38.917259 44.2821334,39.0198622 44.1616415,39.0257816" id="Fill-63"></path>
                        <path d="M31.8971949,15.6221618 C31.8059354,15.5548414 31.770985,15.4355883 31.8098188,15.3288375 C31.8204981,15.3009476 31.827294,15.2769047 31.8292357,15.2519 C31.8311774,15.234589 31.8370025,15.1845797 31.8418567,15.1672687 C31.7243844,14.48541 31.5438072,13.7756615 31.2748831,12.932234 C31.1680901,12.5975558 31.0603263,12.2830737 30.9593583,11.9887878 L30.8147024,11.5627463 C30.7438307,11.3492447 30.6778132,11.1482454 30.6137374,10.9270501 C30.2409328,9.63161475 30.082685,8.73144586 30.0050174,8.28232314 C29.9283206,8.18615125 29.932204,8.04862545 30.0127842,7.95630043 C30.0729766,7.88705667 30.1360815,7.81492775 30.21472,7.71779415 C30.3787928,7.5167949 30.4904401,7.30233158 30.5467491,7.07825108 C30.604029,6.85801745 30.604029,6.62912835 30.5467491,6.41947363 C30.4787899,6.16750328 30.4681106,5.87033214 30.4710231,5.66548602 C30.4739357,5.53373053 30.6370377,5.42313286 30.7710143,5.41255395 C31.1981863,5.38274066 31.2612912,5.1961672 31.2758539,5.15481329 L31.2768248,5.06344999 C31.2476994,4.92207731 31.1661484,4.66048977 30.9389706,4.4835335 C30.8389735,4.40948114 30.8069356,4.2748405 30.8622738,4.16520454 C30.8719823,4.14212329 30.9020785,4.08442015 30.7739269,3.92092794 C30.7574225,3.90457872 30.7448015,3.8882295 30.7331514,3.8680334 C30.68558,3.78917245 30.68558,3.69300056 30.7312097,3.61317789 L30.7719852,3.54008726 C30.7836353,3.52085288 30.7962563,3.50258022 30.8127607,3.48719272 C30.9079035,3.38909739 31.0409093,3.37563333 31.2205157,3.35639895 C31.3311921,3.3438966 31.482644,3.32658566 31.7078801,3.25060987 C31.7340929,3.2419544 31.7622474,3.23714581 31.7913728,3.23714581 C31.8166147,3.23714581 31.8437984,3.21983487 31.8632153,3.15636142 C31.8632153,3.14097392 31.8622445,3.13424188 31.8234107,3.10154344 C31.7690433,3.05922781 31.7360346,2.99479264 31.7292387,2.92747232 C31.7234136,2.85822856 31.745743,2.78994652 31.7904019,2.7380137 C31.827294,2.69473635 31.8505943,2.64376525 31.8603028,2.58413868 C31.877778,2.47642616 31.8505943,2.42064646 31.8243815,2.38313943 L31.7768101,2.31101051 C31.7651599,2.29081441 31.7554515,2.26773316 31.7505973,2.2446519 C31.7379763,2.19271908 31.7389471,2.13213079 31.7544806,2.05904016 C31.7797226,1.93113154 31.783606,1.72051511 31.7418597,1.56856352 C31.7253553,1.50989867 31.7049675,1.4656596 31.6913757,1.44931038 C31.670988,1.43392287 31.5972037,1.41372678 31.6030288,1.4098799 C31.5787576,1.41372678 31.5379821,1.42622912 31.4661396,1.48874085 C31.3583758,1.58202758 31.2651746,1.65992682 31.131198,1.74359636 C31.0904225,1.76763933 31.0447927,1.77917996 30.999163,1.77917996 C30.9690668,1.77917996 30.9389706,1.77437136 30.9079035,1.76379246 C30.8350901,1.73590261 30.779752,1.67819947 30.7535391,1.60510884 C30.7302388,1.53297992 30.7117928,1.43969319 30.7011135,1.32621036 C30.6836383,1.14059861 30.6564546,0.968450929 30.6244167,0.815537624 C30.609854,0.74052355 30.5923788,0.670318071 30.5768453,0.610691499 L30.5234488,0.41834772 C30.5147112,0.391419591 30.4923817,0.373146932 30.4613147,0.372185213 C30.434131,0.372185213 30.4108307,0.386610996 30.3817054,0.460663351 C30.3156879,0.641466504 30.2438453,0.911709514 30.1787987,1.22330644 C30.1564693,1.33678927 30.0613264,1.41853537 29.9457958,1.42815256 L29.9263789,1.42911428 C29.8186151,1.42911428 29.7225014,1.3637174 29.6836676,1.26273691 L29.6603673,1.2011869 C29.6030874,1.04057985 29.4729942,0.789571214 29.3157172,0.529907112 C29.2448455,0.413539126 29.1691196,0.298132858 29.0992187,0.197152374 L28.9642712,0.0144257834 L28.8895161,0 C28.8623325,0.0125023457 28.8467989,0.0403921937 28.8516532,0.065396885 C28.8516532,0.065396885 28.9924257,0.825154813 28.9963091,0.849197786 C29.0128135,0.960757178 28.9545628,1.07135485 28.8506823,1.12040251 C28.8157319,1.13675174 28.7778689,1.14540721 28.740006,1.14540721 C28.6681634,1.14540721 28.5982625,1.11559392 28.5477786,1.05981422 C28.4361314,0.937675924 28.2807961,0.775145431 28.1322568,0.627040721 L27.942942,0.443352411 L27.8254697,0.339486771 C27.7963443,0.323137549 27.773044,0.301979734 27.7526563,0.277936761 C27.7400353,0.262549259 27.729356,0.246200038 27.7079974,0.246200038 L27.7002306,0.247161756 C27.6643094,0.25293207 27.6371257,0.285630512 27.6681927,0.35775943 C27.7089682,0.387572715 27.7400353,0.428926628 27.7565397,0.476050854 C27.7837233,0.552026647 27.8177029,0.638581347 27.8652743,0.745332145 C27.9109041,0.846312629 27.9575046,0.951139989 27.9973093,1.0482736 C28.0361431,1.14156033 28.0167262,1.25023457 27.9458545,1.3233252 C27.8953705,1.3742963 27.8283822,1.40218615 27.7584813,1.40218615 C27.7283851,1.40218615 27.6992598,1.39737756 27.6701344,1.38679865 C27.5885834,1.35698536 27.4963531,1.33198067 27.4080062,1.31178457 C27.3002424,1.28966504 27.1973328,1.27620098 27.0924815,1.27427754 C27.0633561,1.27427754 27.0381141,1.27523926 27.0254931,1.27523926 C27.0254931,1.27523926 26.9944261,1.30216739 26.9769509,1.34063614 C26.9691841,1.3589088 26.9740383,1.4098799 26.9876302,1.43199944 C27.0128722,1.47335335 27.0254931,1.52240101 27.0235514,1.57144868 C27.0225806,1.669544 26.9983095,1.72243854 26.9526797,1.79072059 C26.9410296,1.81284012 26.9439421,1.87727529 26.963359,1.90227998 C27.0070471,1.96382999 27.0352016,2.01768625 27.0507351,2.06384875 C27.0779188,2.1427097 27.0769479,2.22060893 27.0750063,2.33313004 C27.0740354,2.34851755 27.0740354,2.36582849 27.0740354,2.4225699 C27.0740354,2.51200976 27.1711199,2.64376525 27.3701432,2.82360668 C27.421598,2.86976919 27.4516942,2.93420435 27.4546068,3.0024864 C27.4575193,3.06980672 27.4322773,3.13712704 27.3866476,3.1861747 C27.2827671,3.29965753 27.1750033,3.42083412 27.0633561,3.55355132 C27.0633561,3.55355132 26.6526885,4.05172171 26.5750209,4.14212329 C26.511916,4.21521392 26.4497819,4.28638112 26.3915312,4.34985457 C26.3429889,4.40371083 26.2866799,4.47295459 26.2138665,4.58259054 C26.1983329,4.6364468 26.1400822,4.70953744 26.0944525,4.7431976 C25.9002834,5.03267499 25.6847558,5.40101332 25.4857325,5.78185401 C25.419715,5.90495403 25.3575809,6.02901576 25.2964176,6.15692438 C25.2245751,6.30502909 25.1546742,6.45601895 25.0896276,6.6060471 C24.8566247,7.13787765 24.704202,7.59950272 24.635272,7.97938169 C24.5585752,8.38041847 24.5440125,8.90263183 24.5265373,9.48351004 C24.5022662,10.3480953 24.4750825,11.3280869 24.214896,12.1580503 C24.126549,12.4388722 24.0236394,12.6735316 23.8789835,12.9168465 C23.7974325,13.0505254 23.693552,13.1870895 23.5673421,13.3236536 C23.4440448,13.4582942 23.3032722,13.5871646 23.1498787,13.7112263 C22.9586221,13.8641396 22.7430945,14.0103209 22.5100916,14.146885 C22.3489313,14.23921 22.1790333,14.3267264 22.005252,14.4075108 C21.7916661,14.5056061 21.5683716,14.595046 21.3217769,14.6796772 C21.0353776,14.7768108 20.7392698,14.8556718 20.4402494,14.9181835 C20.2917101,14.9470351 20.1421999,14.9720398 19.9295848,15.0008913 C19.7548326,15.0230109 19.5781388,15.0383984 19.4024158,15.0451304 L19.2897977,15.0509007 C19.2082467,15.0682117 18.5072964,15.1345703 18.4606958,15.0509007 C18.4480748,15.0287812 18.0898329,14.9595374 17.9238184,14.9220304 L17.599556,14.8422077 C17.3762616,14.7835429 17.1617048,14.7210312 16.9587981,14.6517874 C16.8879264,14.6287061 16.8160839,14.601778 16.7044366,14.5613858 L16.4034746,14.441171 C16.275323,14.3873147 16.1510548,14.3305733 16.0326117,14.2709467 C15.9500898,14.2295928 15.8704805,14.1882389 15.7918421,14.1449615 C15.5996147,14.0362873 15.4209791,13.9228045 15.2549646,13.8025896 L15.1277839,13.705456 L14.9899238,13.5948583 C14.7297373,13.3746247 14.4986761,13.1255395 14.3006237,12.8543348 C14.1249007,12.6129433 13.9724779,12.3455855 13.8433555,12.0570698 L13.7433584,11.827219 C13.4569591,11.1655564 13.1977434,10.5115875 12.974449,9.87877651 C12.9229942,9.73355695 12.8715394,9.58545224 12.8220262,9.43542409 C12.7579505,9.24404203 12.6958164,9.05265997 12.6365948,8.85935448 C12.5550438,8.59392006 12.4802887,8.32752393 12.4123295,8.06305123 C12.3288368,7.74856915 12.2579651,7.43793395 12.1987436,7.13403078 C12.1676765,6.97150028 12.1259302,6.81762526 12.0783587,6.66952055 C11.9472946,6.26656033 11.750213,5.88283449 11.492939,5.52796022 C11.154114,5.0586414 10.7978138,4.76531713 10.6764581,4.66433665 C10.652187,4.66145149 10.6308284,4.65375774 10.6084989,4.64317883 C10.5405398,4.61048039 10.4745223,4.59413117 10.4114173,4.59413117 C10.3434582,4.59413117 10.2774407,4.61528898 10.2221025,4.65568118 C10.1405515,4.71530775 10.0764757,4.81724995 10.0337585,4.95381404 L10.0172541,5.01728748 C9.99298301,5.11634453 9.88619003,5.19424376 9.78425127,5.2115547 C9.64542039,5.23367424 9.38232131,5.31061175 9.17844379,5.58277819 C9.00951671,5.80974385 8.94058669,6.11845562 8.91437387,6.33868925 C8.90272373,6.42620567 8.83670625,6.49833458 8.75418439,6.5348799 C8.72408819,6.54834397 8.68816691,6.555076 8.65418733,6.555076 C8.59690745,6.555076 8.53865674,6.53872678 8.49302701,6.50699005 L8.42700952,6.53103303 C8.38332149,6.58104241 8.35031274,6.66663539 8.32701246,6.79550572 C8.30759555,6.90321824 8.29303287,7.05420811 8.28817865,7.26867142 C8.28429526,7.48409645 8.29691625,7.7206793 8.32701246,7.97168793 C8.36778796,8.31309814 8.42992206,8.60065209 8.46390165,8.74298649 C8.48137686,8.81415369 8.46584334,8.8910912 8.4221553,8.95071777 C8.37846726,9.01130606 8.31050809,9.04977482 8.23478215,9.05650685 C8.16682298,9.06323888 8.08235944,9.06804748 7.97459561,9.07093263 L7.84741487,9.07189435 C7.74450527,9.07189435 7.61732454,9.08920529 7.4901438,9.12094202 C7.39208842,9.14594671 7.29112051,9.17960687 7.20180274,9.21711391 L7.12413512,9.25365922 C7.00180861,9.31424751 6.90569492,9.38445299 6.83773575,9.45850535 C6.76492235,9.53640458 6.72900108,9.62007412 6.72900108,9.70662882 C6.72900108,9.75856164 6.74259291,9.8124179 6.77171827,9.87300619 L6.83676491,10.0009148 C6.94647043,10.2163398 7.08238877,10.4836977 7.16102724,10.7087399 L7.20180274,10.8337634 C7.24937416,10.8856962 7.27655783,10.9578251 7.26879107,11.0338009 C7.25519923,11.1626712 7.14743541,11.2617283 7.01540044,11.2646134 L6.93870366,11.2655752 C6.90860746,11.2655752 6.87851125,11.2684603 6.85035674,11.2723072 C6.68919642,11.2944267 6.53580286,11.379058 6.41638889,11.5079283 C6.30279998,11.6329518 6.23775335,11.7743245 6.23192828,11.9031948 C6.23192828,11.919544 6.23386997,11.9628214 6.23484081,11.9734003 C6.24357842,12.0320651 6.27561632,12.1080409 6.37949676,12.1493948 C6.45425185,12.1782464 6.51153173,12.2407581 6.53289032,12.3176956 C6.55424892,12.3965566 6.5387154,12.4783027 6.48920228,12.5427378 C6.42027227,12.6331394 6.36590493,12.7254644 6.3309545,12.8177895 C6.29114984,12.9235785 6.30765421,12.9985926 6.38920522,13.0774536 C6.47075622,13.1563145 6.49017313,13.2765294 6.43968917,13.3765481 C6.34454633,13.5640833 6.196007,13.9574263 6.10960177,14.2517123 C6.01931315,14.5565772 5.98533357,14.7671937 6.00572132,14.8816382 C6.01154639,14.9114515 6.04358429,14.9403031 6.07368049,14.9422265 C6.15231896,14.9489585 6.22513236,14.9912742 6.2688204,15.056671 C6.31250844,15.1230296 6.32318774,15.2047758 6.29794576,15.2807515 C6.2173656,15.5144492 6.24357842,15.5336836 6.27658716,15.5586883 C6.30279998,15.5759992 6.35037141,15.5990805 6.49405651,15.6058125 C6.58822851,15.6115828 6.67269205,15.6664008 6.71346755,15.7491087 C6.7552139,15.8318165 6.74841798,15.9308735 6.69502149,16.007811 C6.67560458,16.0347392 6.65715852,16.0645524 6.63774162,16.0953275 C6.54162793,16.2588197 6.58337428,16.4376994 6.61638302,16.5290627 C6.64259584,16.6040767 6.63482908,16.6848611 6.59114104,16.7531432 C6.56201568,16.7973822 6.52415272,16.8820135 6.49891074,17.0330034 C6.47366876,17.1839932 6.54939469,17.4340402 6.70667163,17.7167855 C6.73094277,17.7619863 6.74259291,17.8129574 6.73773868,17.8639285 C6.72900108,17.9601004 6.723176,18.16687 6.79404771,18.4890458 C6.84161913,18.7121646 7.04743834,18.8775802 7.23286979,19.0247232 C7.3144208,19.0901201 7.39403011,19.1545553 7.45616421,19.2257225 C7.52994846,19.3036217 7.57460734,19.3795975 7.59693678,19.4613436 C7.65907088,19.689271 7.81537698,19.8392991 7.9037239,19.9075812 C7.96779969,19.9585523 8.00372097,20.0364515 8.00080843,20.1191593 C7.99595421,20.2336039 8.00177928,20.469225 8.08915536,20.7615875 C8.12701832,20.886611 8.21342356,20.9914384 8.35516697,21.0818399 C8.45613488,21.1453134 8.58525731,21.1991696 8.72797157,21.2376384 C8.83379371,21.26649 8.90951964,21.3578533 8.91728641,21.4665275 C8.9299074,21.6213642 8.9600036,21.8502533 9.03864207,22.0550995 C9.08912603,22.1868549 9.21242338,22.2291706 9.36775863,22.2695628 C9.51144374,22.3080315 9.65998307,22.3465003 9.79298888,22.5580784 C9.85026875,22.6917574 9.94735328,22.8619816 10.0405544,23.0168184 C10.1007468,23.1158754 10.2648197,23.3697692 10.2648197,23.3697692 C10.3055952,23.4303575 10.3162745,23.5053716 10.2978284,23.5765388 C10.2551112,23.7313755 10.2026856,23.9544943 10.1968605,23.9775755 C10.143464,24.2122349 10.0803591,24.5161381 10.0318168,24.8479311 C9.91434454,25.631732 9.91628623,26.2530024 10.0327877,26.7415556 C10.0716215,26.8886986 10.1279305,27.0377651 10.2026856,27.1829846 C10.2949159,27.3637878 10.4143299,27.5436292 10.558015,27.718662 C10.8415018,28.0668043 11.1725601,28.3466645 11.4026504,28.5216973 C11.5589565,28.6409505 11.6900206,28.7284669 11.7676882,28.779438 C11.8239973,28.8150216 11.8638019,28.8708013 11.8793354,28.9361982 C11.894869,29.0035185 11.9210818,29.0881497 11.9570031,29.1766279 C12.0103996,29.3141537 12.1133092,29.5266936 12.2987406,29.7526975 C12.3647581,29.8344436 12.4424257,29.9171514 12.5307727,29.9988975 C12.6307697,30.0902608 12.7463003,30.1806624 12.8773644,30.2662554 C13.0657084,30.387432 13.2734693,30.4893742 13.4957929,30.5701586 L13.6627783,30.6288234 C13.8676266,30.6980672 14.0579123,30.7490383 14.2346062,30.7865453 C14.4753758,30.8384781 14.7132329,30.8702149 14.9472066,30.8788703 C14.9976906,30.8817555 15.045262,30.8817555 15.1229296,30.8817555 C15.2753523,30.8807938 16.231635,30.8634828 16.3413405,30.9471524 L16.6723987,31.2125868 C16.758804,31.2895243 16.8257923,31.3770407 16.8821013,31.4914853 C16.8995766,31.5261071 16.9151101,31.5636142 16.9296728,31.6020829 C16.9869526,31.755958 17.0228739,31.9463783 17.0519993,32.2329705 C17.0859788,32.5763042 17.2840313,32.8176956 17.5597514,33.1225605 L17.8772178,33.4726262 C18.0752702,33.7005536 18.2043926,33.842888 18.3131273,33.9053997 L18.3937075,33.9294427 C18.4878795,33.9534856 18.5587512,34.0438872 18.5801098,34.1381357 L18.9169931,34.9440561 L19.2490222,35.721125 C19.2645557,35.7461297 19.2810601,35.7865219 19.287856,35.8144117 L19.5247423,36.360668 C19.6558064,36.6597626 19.7752204,36.9415463 19.8771591,37.2012104 L19.9383224,37.3579705 C20.0179317,37.5637784 20.0868617,37.7590073 20.1441416,37.9350019 C20.4208325,38.9342278 20.2771474,39.484331 20.2014215,39.7776553 C20.1402582,40.0209702 20.0645323,40.2344718 19.9829813,40.3998874 L19.9402641,40.4777866 L19.883955,40.5653031 C19.8257043,40.6489726 19.7674536,40.7182164 19.7004653,40.7932304 C19.6684274,40.8297758 19.6402729,40.8624742 19.6179434,40.8922875 C19.5994974,40.9153687 19.6004682,40.9471055 19.6752233,40.9990383 C19.702407,40.9846125 19.7441533,40.9788422 19.7878413,40.9788422 C19.8412378,40.9788422 19.8975469,40.9874977 19.9334681,41 L19.9402641,41 C19.9635644,40.9980766 20.0053107,40.9903828 20.0189025,40.9865359 C20.1004535,40.9605695 20.1907422,40.900943 20.2917101,40.8095797 C20.367436,40.7422593 20.4373369,40.6633984 20.505296,40.5778054 C20.5509258,40.5201023 20.5955846,40.4575905 20.6528645,40.3796913 C20.8344126,40.1286827 20.9916895,39.9132576 21.2266341,39.8680569 L21.3596399,39.8411287 C21.5081792,39.8084303 21.660602,39.7757318 21.8440917,39.7757318 C21.9004007,39.7757318 21.9605932,39.778617 22.0236981,39.7863108 C22.17515,39.8045834 22.3333978,39.8430522 22.5217417,39.9074873 C22.6799895,39.9623053 22.9110507,40.0325108 23.2129836,40.1181038 L23.9168465,40.305639 L24.2624674,40.3902702 C24.785753,40.5133702 25.0323477,40.551839 25.1410824,40.5614562 L25.2100124,40.5653031 C25.338164,40.5653031 25.4148608,40.5422218 25.4643739,40.4797101 C25.5070911,40.3912319 25.5973797,40.3344905 25.6964059,40.3344905 L25.8517412,40.3354522 C25.8789248,40.3354522 25.9022251,40.319103 25.9119336,40.2940983 C25.9226129,40.2690936 25.915817,40.2402421 25.8944584,40.2229311 C25.8342659,40.17196 25.7090269,40.0805967 25.5624293,40.0353959 C25.5051494,40.018085 25.4546654,40.0103913 25.407094,40.0103913 L25.0672981,40.0103913 C24.974097,40.0103913 24.892546,39.9526881 24.8469163,39.8719037 C24.8012865,39.7920811 24.8061408,39.6853303 24.8537122,39.6055076 C24.8663332,39.5756943 24.8527413,39.5420342 24.823616,39.5247232 L24.6954644,39.4593263 C24.6139134,39.4170107 24.5595461,39.3352646 24.5556627,39.2439013 L24.5187705,39.1842747 C24.4867327,39.1679255 24.4420738,39.1602318 24.3760563,39.1477294 C24.3459601,39.1409974 24.3110097,39.1342653 24.2226627,39.1063755 C24.2226627,39.1063755 23.769278,38.9034528 23.6819019,38.8611372 C23.5508378,38.8005489 23.4217153,38.7361137 23.3013305,38.6726403 L23.1896833,38.6101285 C23.1081323,38.5630043 22.9527971,38.5303059 22.789695,38.4966457 C22.7100857,38.4802965 22.6285347,38.4629856 22.5596047,38.4437512 C22.3887359,38.3995121 22.2207797,38.3398855 22.0567068,38.2677566 C21.9567098,38.2225558 21.8557419,38.1725464 21.7576865,38.115805 C21.6062346,38.0292503 21.484879,37.9484659 21.3858527,37.8638347 C21.1198411,37.6445628 20.9955729,37.4127885 20.7946079,36.9723213 C20.6994651,36.7617048 20.6052931,36.5280071 20.5140336,36.2818071 C20.3606401,35.8692297 20.204334,35.389332 20.0616197,34.893085 L19.9994856,34.6795834 C19.934439,34.4420388 19.8761883,34.2208435 19.8266752,34.0179208 C19.8101708,33.9486771 19.8227918,33.8746247 19.8625964,33.8159598 C19.9033719,33.7563333 19.965506,33.7149794 20.0363777,33.7044005 C20.1499667,33.6851661 20.2121008,33.6668934 20.2460803,33.6380418 C20.3091853,33.586109 20.316952,33.5159035 20.3091853,33.3014402 C20.3014185,33.0985175 20.2878267,32.7926909 20.3713194,32.2945205 C20.4120949,32.0521674 20.4625788,31.7953884 20.5159753,31.5453415 C20.6324768,31.0019704 20.7596575,30.4961062 20.825675,30.2412507 C20.8548003,30.130653 20.9547974,30.0517921 21.070328,30.0489069 C21.1411997,30.0469835 21.2363426,30.0421749 21.3518731,30.0287108 C21.584876,30.0017827 21.8198206,29.9488882 22.0508818,29.8729124 C22.231459,29.8142475 22.4062112,29.7421186 22.5712549,29.6565256 C22.6236805,29.6286358 22.6790187,29.5988225 22.733386,29.5670858 C22.9013423,29.4699521 23.0615317,29.388206 23.2197795,29.3093451 L23.2906512,29.2718381 C23.4100652,29.2141349 23.5275375,29.1545084 23.6459806,29.0910349 C23.7527736,29.0333318 23.8605374,28.9727435 23.9683013,28.9054232 C24.0838318,28.8332942 24.1983916,28.7525099 24.3168347,28.6601848 C24.6255635,28.41687 24.9158463,28.1177754 25.2012748,27.7503988 C25.3274847,27.5840214 25.4595197,27.3993714 25.5973797,27.1906784 L25.664368,27.0848893 C25.8041697,26.8665791 25.977951,26.6424986 26.1973621,26.3972603 C26.342018,26.2356915 26.5012367,26.073161 26.6691929,25.9077454 C26.8235573,25.7567555 26.9876302,25.6038422 27.1575281,25.4461203 L28.1303151,24.5565303 C28.4118602,24.2949428 28.7002013,24.0198912 28.9817464,23.7323372 L29.3079505,23.3880418 C29.4953236,23.1851192 29.6797842,22.973541 29.8613323,22.7523457 C30.1438483,22.4051651 30.3914138,22.0627932 30.6176208,21.7050338 C30.6836383,21.6021299 30.7457724,21.4963408 30.8224692,21.3674704 C30.9875129,21.0779931 31.1399356,20.7788985 31.2719705,20.4826891 C31.3525507,20.2970773 31.43216,20.1076187 31.5020609,19.911428 C31.9826293,18.5890646 32.1175768,17.1945722 31.8971949,15.6221618" id="Fill-65"></path>
                    </g>
                </g>
            </g>
        </g>
    </g>
</svg>