<?xml version="1.0" encoding="UTF-8"?>
<svg width="190px" height="94px" viewBox="0 0 190 94" version="1.1" xmlns="http://www.w3.org/2000/svg" xmlns:xlink="http://www.w3.org/1999/xlink">
    <!-- Generator: Sketch 48.2 (47327) - http://www.bohemiancoding.com/sketch -->
    <title>GREAT FOOD GREATER P</title>
    <desc>Created with Sketch.</desc>
    <defs>
        <path d="M52.6312907,14.5186046 C52.6312907,22.4329277 40.8917907,28.8490662 26.4102144,28.8490662 C11.9290873,28.8490662 0.189587288,22.4329277 0.189587288,14.5186046 C0.189587288,6.60428154 11.9290873,0.188589231 26.4102144,0.188589231 C40.8917907,0.188589231 52.6312907,6.60428154 52.6312907,14.5186046 Z" id="path-1"></path>
        <path d="M51.6383356,14.5186046 C51.6383356,22.4329277 40.1198949,28.8490662 25.9119966,28.8490662 C11.7040983,28.8490662 0.186098305,22.4329277 0.186098305,14.5186046 C0.186098305,6.60428154 11.7040983,0.188589231 25.9119966,0.188589231 C40.1198949,0.188589231 51.6383356,6.60428154 51.6383356,14.5186046 Z" id="path-2"></path>
    </defs>
    <g id="FHF_HowItWorks" stroke="none" stroke-width="1" fill="none" fill-rule="evenodd" transform="translate(-131.000000, -134.000000)">
        <g id="GREAT-FOOD-GREATER-P" transform="translate(131.000000, 133.000000)">
            <text font-family="RobotoMono-Medium, Roboto Mono" font-size="16" font-weight="400" line-spacing="15" letter-spacing="2.83999991" fill="#174375">
                <tspan x="32.6839061" y="17">GREAT FOOD</tspan>
                <tspan x="3" y="41.3999996">GREATER PURPOS</tspan>
                <tspan x="177.181874" y="41.3999996">E</tspan>
            </text>
            <g id="Group-2" stroke-width="1" fill-rule="evenodd" transform="translate(0.000000, 54.000000)">
                <g id="Page-1" transform="translate(55.000000, 0.000000)">
                    <path d="M38.6466364,0.77274396 L1.47289675,20.2761707 L38.6466364,39.7784622 L75.8215205,20.2761707 L38.6466364,0.77274396 Z" id="Stroke-1" stroke="#174375" stroke-width="1.36857"></path>
                    <path d="M48.710244,22.7457681 C48.3617421,22.7647526 48.0109399,22.7754314 47.6612878,22.778991 C46.8906731,22.7849236 46.1212085,22.8264523 45.351744,22.8513694 C44.6765934,22.870354 43.894477,22.8039081 43.229678,22.928494 C43.1940227,22.9356132 43.1767701,22.9569708 43.1503162,22.9688361 C43.1629681,22.8834058 43.1652684,22.8027216 43.1261626,22.7694987 C43.0260977,22.6828819 42.7028996,22.778991 42.5832818,22.7766179 C42.3451963,22.7718718 42.1117116,22.7671256 41.8724759,22.7718718 C40.8258201,22.8003485 39.7722632,22.8442502 38.7244572,22.8205196 C37.7376103,22.8003485 36.7473129,22.9095095 35.7616161,22.8691674 C35.3464043,22.8537425 34.9047385,22.8881519 34.4883765,22.9130691 C34.0225572,22.9403594 33.5555876,22.910696 33.0897683,22.9166287 C32.6527032,22.9201883 32.2064368,22.9273075 31.7693717,22.9474785 C31.2218902,22.9712092 30.6548558,22.9142556 30.1131251,22.9676496 C29.9820056,22.9795149 29.6599576,22.9249344 29.5552921,22.9866341 C29.4241725,23.0673183 29.4448756,23.3271689 29.4494763,23.4707393 C29.454077,23.6866881 29.4759302,23.6878747 29.6507563,23.7032996 C29.7048143,23.7080457 29.7600225,23.7044861 29.8152308,23.7056726 C30.1890364,23.8172067 30.5881458,23.8860255 30.958501,24.0011192 C31.4128186,24.1387569 31.852184,24.2989388 32.2811979,24.5042088 C33.1150721,24.9040702 33.9443455,25.4949633 34.4688236,26.2934995 C35.0025031,27.1050875 35.1991824,28.1777127 35.0312574,29.1376172 C34.8529808,30.1639676 34.3538065,30.7572337 33.4900279,31.243712 C33.4750757,31.2532042 33.484277,31.2674426 33.4762258,31.2769349 C33.1909834,31.448982 33.2990995,31.8262993 33.30255,32.1941243 C33.3060005,32.4088866 33.2737957,32.5121149 33.5084306,32.5536436 C33.6602532,32.5785607 33.8419803,32.5299129 33.9984036,32.5310994 C34.283646,32.534659 34.5642878,32.5097419 34.8495303,32.5073688 C35.0542608,32.5038092 35.3533053,32.5916126 35.5373327,32.4978765 C35.6949062,32.4160058 35.8007219,32.1703936 35.9364421,32.0469943 C36.1676266,31.8334185 36.6288452,30.8877523 38.1551225,30.8141873 C39.0465052,30.6801091 40.1426184,31.3671113 40.9005812,31.8654549 C41.1225643,32.0102118 41.2720865,32.2095492 41.4653153,32.3815964 C41.63094,32.532286 41.7528581,32.5002496 41.9644896,32.5109284 C42.1623191,32.5239802 42.3532475,32.5227937 42.551077,32.5251668 C42.6902477,32.5275398 42.9375345,32.6094106 43.0640534,32.5275398 C43.2664835,32.3946482 43.1997736,31.6767962 43.1537667,31.4561012 C43.1158111,31.2710022 43.1664186,31.281681 42.9329338,31.2484581 C42.900729,31.2425254 42.8673741,31.243712 42.8351693,31.2401524 C42.7673092,31.1831988 42.6821965,31.1203126 42.6695446,31.1120069 C42.4728653,30.9779287 42.2968891,30.840291 42.1220631,30.6741765 C41.6573939,30.2292269 41.2847384,29.6917278 41.1432674,29.0462543 C41.0109977,28.4458689 41.0006461,27.7636129 41.3008408,27.2308599 C41.8322199,26.2851937 42.605135,26.1701001 42.5671794,26.0834833 C42.6292886,26.0799237 42.6948484,26.0822967 42.7351044,26.0395816 C42.8041147,25.9672031 42.8190669,25.8022751 42.8271181,25.6551451 C43.0191967,25.6871815 43.3792003,25.5780205 43.4873164,25.559036 C44.2038731,25.4368232 44.8974263,25.2813875 45.5886792,25.0606925 C46.9550827,24.6276082 48.2076192,23.9809481 49.0644968,22.8086543 C49.1461589,22.6971202 48.7620017,22.7422085 48.710244,22.7457681" id="Fill-3" fill="#004177"></path>
                    <path d="M44.1201334,12.552392 C44.0769776,12.5221368 44.0597152,12.4686085 44.0782106,12.4208985 C44.0831427,12.4080982 44.0868417,12.3964617 44.0880748,12.3859887 C44.0880748,12.3790068 44.0917738,12.3557336 44.0942399,12.347588 C44.0387538,12.0427093 43.9524422,11.722703 43.8266739,11.3433501 C43.7761199,11.193238 43.724333,11.0512716 43.6774781,10.9197781 L43.6084288,10.7277743 C43.5751372,10.6311906 43.5443116,10.5404252 43.513486,10.4426778 C43.3383967,9.85968456 43.2631823,9.45473115 43.2261916,9.25225445 C43.190434,9.20919905 43.1929,9.14752512 43.2298907,9.10563338 C43.2582502,9.07537824 43.2878428,9.04279579 43.3248335,8.99857674 C43.4025139,8.90897498 43.4555339,8.81239126 43.4826604,8.71115291 C43.5097869,8.61224188 43.5097869,8.50983986 43.4826604,8.41441981 C43.4506018,8.30270852 43.4456697,8.16772405 43.4469028,8.07579498 C43.4481358,8.01761202 43.5258162,7.96757467 43.5887004,7.96292003 C43.7896832,7.94895612 43.8192757,7.86633632 43.8266739,7.84655411 L43.8266739,7.80582604 C43.8131106,7.74182478 43.7748869,7.62545886 43.6676139,7.54516637 C43.620759,7.51142026 43.6047297,7.45090998 43.6318562,7.40203629 C43.6355553,7.39156336 43.6503516,7.36596285 43.5899334,7.29148866 C43.5813023,7.28567037 43.5751372,7.27752475 43.5702051,7.26821548 C43.5480107,7.2333057 43.5480107,7.19025031 43.5689721,7.15301322 L43.5887004,7.12159442 C43.5936325,7.11228514 43.5997976,7.10413953 43.6071958,7.09715757 C43.6540506,7.05293852 43.7157018,7.04712023 43.8007804,7.03897461 C43.8525674,7.03315632 43.9240827,7.0250107 44.0301227,6.99126458 C44.0424529,6.98777361 44.0560162,6.98544629 44.0695794,6.98544629 C44.0819096,6.98544629 44.0942399,6.97730067 44.1041041,6.94937285 C44.102871,6.9423909 44.102871,6.93889992 44.0843757,6.92377235 C44.0597152,6.90399014 44.0436859,6.87606232 44.0412199,6.84580718 C44.0375208,6.81438838 44.047385,6.78413324 44.0683464,6.7596964 C44.0868417,6.74107785 44.0979389,6.71780467 44.101638,6.69104051 C44.1115022,6.64333048 44.0979389,6.61772998 44.0856087,6.60143875 L44.0634143,6.56769263 C44.0572492,6.55954701 44.0535501,6.54907408 44.049851,6.53860115 C44.0436859,6.51649162 44.044919,6.48740014 44.0523171,6.45598134 C44.0646473,6.39779838 44.0658803,6.30354199 44.046152,6.23372243 C44.0387538,6.20812193 44.0288897,6.18833972 44.0227245,6.18019411 C44.0128604,6.17437581 43.9783357,6.16506654 43.9808018,6.16390288 C43.9697045,6.16506654 43.9499762,6.17088484 43.9154515,6.19881266 C43.8648976,6.24070439 43.8205088,6.27561417 43.7588576,6.31401492 C43.7391292,6.32332419 43.7181678,6.32914249 43.6959734,6.32914249 C43.6824102,6.32914249 43.6676139,6.32681517 43.6540506,6.32216053 C43.618293,6.31052394 43.5923995,6.28375978 43.5800693,6.25117732 C43.5689721,6.21859486 43.5603409,6.17670313 43.5554088,6.12666579 C43.5467776,6.04288232 43.5344474,5.96491715 43.5196511,5.89626126 C43.512253,5.86251514 43.5036218,5.83109634 43.4962237,5.80316852 L43.4715632,5.7182214 C43.4678642,5.70542115 43.456767,5.69611187 43.4419707,5.69611187 C43.4296404,5.69611187 43.4185432,5.70309383 43.40498,5.73683995 C43.3741544,5.81829609 43.3396298,5.93931665 43.3088042,6.08011942 C43.297707,6.13015676 43.2533181,6.16739386 43.1990651,6.17204849 L43.1892009,6.17204849 C43.138647,6.17204849 43.0930252,6.14179336 43.0745298,6.0975743 L43.0646656,6.06964648 C43.0375391,5.99749961 42.975888,5.88462467 42.9019066,5.76825875 C42.8673819,5.71473042 42.8328573,5.66352942 42.7995657,5.61814671 L42.7354485,5.53669056 L42.7009238,5.52970861 C42.6873606,5.5355269 42.6811954,5.54716349 42.6824285,5.55880009 C42.6824285,5.55880009 42.7490117,5.9009159 42.7502447,5.91138883 C42.7588759,5.96142618 42.7317494,6.01146352 42.6824285,6.03240939 C42.6651661,6.040555 42.6479038,6.04404598 42.6306415,6.04404598 C42.5961169,6.04404598 42.5628252,6.03124573 42.5393978,6.00680889 C42.4863778,5.95095324 42.4136294,5.87880637 42.3433471,5.81131414 L42.2533364,5.72869433 L42.1978504,5.68214796 C42.1855202,5.67516601 42.1731899,5.66585673 42.1645588,5.65422014 C42.1583937,5.64723819 42.1534616,5.64025623 42.1423644,5.64025623 L42.1386653,5.64141989 C42.122636,5.64374721 42.1090727,5.65771112 42.123869,5.69145724 C42.1423644,5.70309383 42.1583937,5.72287604 42.1657918,5.74265824 C42.178122,5.77873168 42.1941513,5.81713243 42.2175788,5.86484246 C42.2385402,5.91022517 42.2607346,5.9579352 42.2792299,6.00099059 C42.2977253,6.04288232 42.2890941,6.09059235 42.2545695,6.12433847 C42.231142,6.14761165 42.1990834,6.1604119 42.1670248,6.1604119 C42.1522286,6.1604119 42.1386653,6.15808458 42.125102,6.15342995 C42.0868783,6.13946604 42.0424895,6.12782944 42.0017997,6.11968383 C41.9500128,6.1092109 41.9019249,6.1033926 41.852604,6.10222894 C41.8390407,6.10222894 41.8267105,6.1033926 41.8217784,6.1033926 C41.8217784,6.1033926 41.8069821,6.11502919 41.7971179,6.13248408 C41.7946519,6.1406297 41.7958849,6.16390288 41.803283,6.17321215 C41.8143802,6.1918307 41.8217784,6.21394023 41.8205454,6.23604975 C41.8193123,6.2802688 41.8082151,6.30354199 41.7860207,6.33496079 C41.7810886,6.34427006 41.7823216,6.37336154 41.7909528,6.38499813 C41.8119142,6.41292595 41.8254774,6.43619914 41.8328756,6.45830866 C41.8452058,6.49321844 41.8452058,6.52812822 41.8439728,6.57816556 C41.8439728,6.58514752 41.8439728,6.59329313 41.8439728,6.61772998 C41.8439728,6.65962171 41.8895946,6.71780467 41.9833044,6.79926081 C42.0079649,6.81904302 42.0215281,6.84929816 42.0227611,6.8795533 C42.0252272,6.90980844 42.0128969,6.94006358 41.9907025,6.9621731 C41.9426146,7.01221045 41.8908277,7.06806609 41.8390407,7.12741271 C41.8390407,7.12741271 41.6442231,7.35083528 41.6072324,7.39156336 C41.5776398,7.42530947 41.5492803,7.45672827 41.5221538,7.48581975 C41.4987263,7.50909294 41.4728328,7.54051174 41.4383082,7.58938542 C41.4309101,7.61382227 41.4025505,7.64640472 41.3815891,7.66269595 C41.2903454,7.79186213 41.1880045,7.9582654 41.0942948,8.12815964 C41.0634692,8.18401528 41.0338766,8.23987093 41.0055171,8.29805389 C40.9709925,8.3632188 40.9377008,8.4318747 40.9081083,8.49936693 C40.7971362,8.73908073 40.7256209,8.94504841 40.6923292,9.11610632 C40.6565716,9.2964735 40.6504065,9.53153266 40.6417753,9.79335598 C40.6306781,10.1820182 40.6171148,10.623045 40.4950456,10.995416 C40.4531228,11.1222548 40.4038019,11.2258205 40.3359856,11.3363681 C40.2977619,11.3968784 40.2484409,11.4585523 40.1892558,11.5190626 C40.1313038,11.5795729 40.0647205,11.6377558 39.9919722,11.6936115 C39.9019615,11.7622674 39.8008536,11.828596 39.6898815,11.8891062 C39.6146671,11.930998 39.5345206,11.9705624 39.451908,12.0066358 C39.3508002,12.0496912 39.2459932,12.0915829 39.130089,12.12882 C38.9944565,12.1730391 38.8538919,12.2079489 38.7133272,12.2358767 C38.6442779,12.2486769 38.5727626,12.2603135 38.4716547,12.2731138 C38.3902752,12.2835867 38.3064296,12.289405 38.2238171,12.292896 L38.1707971,12.2952233 C38.1325734,12.3033689 37.8008902,12.3336241 37.7786958,12.2952233 C37.7737637,12.285914 37.6048395,12.2544952 37.525926,12.2370403 L37.3730312,12.2021306 C37.2669912,12.1753664 37.1671163,12.1474386 37.0709405,12.1160198 C37.0364159,12.1055468 37.0031242,12.0939103 36.9513373,12.0764554 L36.8083066,12.0217634 C36.7478885,11.9973265 36.6899364,11.971726 36.6332173,11.9449619 C36.5949936,11.9263433 36.5567699,11.9077248 36.5197792,11.8891062 C36.4297685,11.8402325 36.345923,11.7890315 36.2670095,11.7343396 L36.2065914,11.6912842 L36.1412411,11.6412468 C36.0191718,11.5423358 35.9094328,11.4294608 35.8169561,11.3084403 C35.7331105,11.20022 35.6615952,11.0791994 35.601177,10.9500332 L35.5530891,10.8464676 C35.4186896,10.5485708 35.2966203,10.254165 35.1905803,9.97023218 C35.1659199,9.90506727 35.1424925,9.83873869 35.119065,9.77124646 C35.0882394,9.68513568 35.0586469,9.59902489 35.0315204,9.51291411 C34.9932967,9.39305721 34.957539,9.27320031 34.9242474,9.15450707 C34.8860237,9.01370431 34.851499,8.8740652 34.8243725,8.73675341 C34.8095762,8.66344288 34.7898479,8.59478699 34.7676534,8.52845841 C34.7060023,8.34692757 34.6135256,8.17354235 34.4914563,8.0152847 C34.3311633,7.80349872 34.1634721,7.67200523 34.1055201,7.62662252 C34.0956559,7.62545886 34.0845587,7.62196788 34.0746945,7.61731324 C34.0426359,7.60218567 34.0105773,7.59520372 33.9809847,7.59520372 C33.9489261,7.59520372 33.9181006,7.60451299 33.8922071,7.62313154 C33.8527503,7.6498957 33.8231578,7.69527841 33.8034294,7.75695235 L33.7947982,7.78488017 C33.783701,7.82909922 33.7331471,7.86517266 33.6850592,7.87215461 C33.619709,7.88146389 33.4951736,7.91753732 33.3989978,8.03855788 C33.3200844,8.14095989 33.2867927,8.280599 33.2744625,8.37951003 C33.2695304,8.41907445 33.2374718,8.4516569 33.1992481,8.46678447 C33.1844518,8.47376643 33.1684225,8.47609375 33.1511602,8.47609375 C33.1252667,8.47609375 33.0981402,8.46911179 33.0759458,8.45514788 L33.0451202,8.46562081 C33.0241588,8.48773034 33.0093626,8.52729475 32.9970323,8.58431405 C32.9884012,8.63318774 32.981003,8.70067998 32.97977,8.79726369 C32.977304,8.89384741 32.9834691,8.9997404 32.9970323,9.113779 C33.0167607,9.26738202 33.0463532,9.39654819 33.0623825,9.45938579 C33.0710137,9.49196825 33.0636156,9.52571436 33.0426542,9.55364218 C33.0216928,9.58040635 32.9896342,9.59786123 32.9538765,9.60135221 C32.9218179,9.60367953 32.8823612,9.60600685 32.8318072,9.60717051 L32.7701561,9.60833417 C32.7220682,9.60833417 32.6628831,9.61647978 32.6024649,9.63044369 C32.5568431,9.64091663 32.5087552,9.65604419 32.4668324,9.67233542 L32.4310747,9.68979031 C32.3731227,9.71655447 32.3275008,9.74797327 32.2942092,9.78171939 C32.2609176,9.81662917 32.2436552,9.85502992 32.2436552,9.89343068 C32.2436552,9.91670386 32.2498203,9.9411407 32.2633836,9.96790487 L32.2942092,10.0260878 C32.3459961,10.1226715 32.4101133,10.2425284 32.4483371,10.3437668 L32.4668324,10.3996224 C32.4890268,10.4240593 32.5025901,10.4554781 32.497658,10.4903879 C32.4914929,10.5474072 32.4409389,10.5916262 32.3792878,10.5927899 L32.3422971,10.5939535 C32.3287338,10.5939535 32.3139375,10.5951172 32.3003743,10.5962808 C32.2251599,10.6067538 32.1524115,10.6439909 32.0969255,10.7021738 C32.0426725,10.7591931 32.0118469,10.8231944 32.0093809,10.8802137 C32.0093809,10.8883593 32.0106139,10.9081415 32.0106139,10.9127962 C32.015546,10.9383967 32.0291092,10.9733064 32.0784301,10.9907613 C32.1141878,11.0047252 32.1413143,11.0326531 32.1511785,11.0675628 C32.1610427,11.1024726 32.1536445,11.138546 32.1302171,11.1688012 C32.0981585,11.2095293 32.072265,11.2502573 32.0550027,11.2921491 C32.0365074,11.3398591 32.0451385,11.3724415 32.0833622,11.408515 C32.1215859,11.4434248 32.1314501,11.4981167 32.1067897,11.5434994 C32.0624008,11.6272829 31.9921185,11.8029955 31.9514288,11.9368163 C31.908273,12.0729644 31.8922437,12.1683844 31.9021078,12.2195855 C31.9045739,12.2335494 31.9206032,12.245186 31.9341664,12.2463496 C31.9711571,12.2498406 32.0056818,12.2696228 32.0266432,12.2987143 C32.0476046,12.3289694 32.0513036,12.3650429 32.0402064,12.398789 C32.0019827,12.504682 32.015546,12.5128276 32.0303422,12.5244642 C32.0426725,12.5314461 32.0648669,12.5419191 32.1326832,12.54541 C32.177072,12.5477374 32.2165287,12.5721742 32.2362571,12.6094113 C32.2559855,12.6466484 32.2522864,12.6908674 32.2276259,12.7257772 C32.2189948,12.7374138 32.2091306,12.7513777 32.2004994,12.7653416 C32.1548776,12.8386522 32.1746059,12.9189446 32.1906352,12.9608364 C32.2029655,12.9934188 32.1992664,13.0306559 32.178305,13.0609111 C32.1647418,13.0806933 32.1474794,13.1179304 32.1351492,13.1865863 C32.122819,13.2552422 32.1585766,13.3669534 32.232558,13.494956 C32.2448883,13.5135745 32.2498203,13.5380113 32.2473543,13.5601209 C32.2436552,13.6031763 32.2411892,13.696269 32.2744808,13.8405627 C32.2966752,13.9406374 32.394084,14.0162753 32.4816287,14.0814402 C32.5198524,14.1116953 32.5568431,14.1407868 32.5864356,14.1733693 C32.6209603,14.2082791 32.6419217,14.2420252 32.6530189,14.2780986 C32.6826114,14.3805006 32.7565928,14.4479929 32.7972826,14.478248 C32.8281082,14.5026848 32.8453705,14.536431 32.8429044,14.5736681 C32.8416714,14.6248691 32.8441375,14.7319257 32.8860602,14.8622555 C32.9033226,14.9181112 32.9452454,14.9658212 33.0105956,15.0065493 C33.0586835,15.0356408 33.1191016,15.0589139 33.1869179,15.0775325 C33.2362388,15.0903327 33.2732295,15.1310608 33.2769286,15.1799345 C33.2818607,15.2485904 33.2966569,15.3521561 33.3336476,15.4440851 C33.3570751,15.5034318 33.4150271,15.523214 33.4890085,15.5406689 C33.5568248,15.5581238 33.6271071,15.5755786 33.6899913,15.6709987 C33.7158848,15.7303453 33.7627396,15.8071468 33.8058955,15.8769664 C33.834255,15.9211854 33.9119354,16.035224 33.9119354,16.035224 C33.9304308,16.0631519 33.9365959,16.096898 33.9267317,16.1283168 C33.9070033,16.1981363 33.8823429,16.298211 33.8798768,16.3086839 C33.8552164,16.4134133 33.8243908,16.5518887 33.8021964,16.6996734 C33.7467103,17.0522622 33.7479434,17.3303767 33.8021964,17.551472 C33.8206917,17.6178006 33.8478182,17.6841291 33.8823429,17.7504577 C33.9254987,17.8307502 33.9822177,17.9110427 34.050034,17.9913352 C34.1832005,18.1484292 34.3410275,18.2729407 34.4483005,18.3509059 C34.5222819,18.4044342 34.583933,18.4439986 34.6209237,18.4672718 C34.6480502,18.483563 34.6665455,18.5079999 34.6739437,18.538255 C34.6813418,18.5685101 34.6936721,18.6057472 34.7109344,18.6453117 C34.7355948,18.7081493 34.7849158,18.8035693 34.8712274,18.9048077 C34.903286,18.9420448 34.9402767,18.9781182 34.9809664,19.0165189 C35.0290543,19.057247 35.0833073,19.0968114 35.1449585,19.1352122 C35.2337362,19.1899042 35.332378,19.2364505 35.437185,19.2713603 L35.5148654,19.2981245 C35.6122742,19.3295433 35.7022849,19.3528165 35.7848975,19.3691077 C35.8995686,19.3935445 36.0105407,19.4075084 36.1215128,19.4121631 C36.1449402,19.4133267 36.1671346,19.4133267 36.2041253,19.4133267 C36.2768737,19.4133267 36.7269271,19.4051811 36.7787141,19.4424182 L36.935308,19.5599478 C36.9772308,19.5960212 37.0080563,19.6355857 37.0339498,19.6867867 C37.042581,19.7030779 37.0499791,19.7193691 37.0561442,19.736824 C37.0832707,19.8054799 37.1005331,19.8915907 37.1140963,20.0195932 C37.1313586,20.1743599 37.2238354,20.2837438 37.3545358,20.419892 L37.5037316,20.576986 C37.5974414,20.679388 37.6578595,20.7433892 37.7096465,20.771317 L37.7478702,20.7829536 C37.792259,20.7934266 37.8255506,20.8341546 37.8354148,20.8760464 L37.9944748,21.2391081 L38.1510687,21.5882058 C38.1596999,21.5986788 38.165865,21.6172973 38.1695641,21.6300976 L38.2817692,21.8756296 C38.3421873,22.0094505 38.3989064,22.1362893 38.4482273,22.2538189 L38.4765868,22.3224748 C38.5148105,22.4167312 38.5468691,22.5040056 38.5739956,22.5831345 C38.7034631,23.0323069 38.6368798,23.2801663 38.6011221,23.4116598 C38.5715296,23.5210438 38.5370049,23.6176275 38.4975482,23.690938 L38.4778198,23.7270115 L38.4506933,23.7654122 C38.4235668,23.803813 38.3952073,23.8340681 38.3643817,23.8689779 C38.3495854,23.8841055 38.3360222,23.899233 38.324925,23.9131969 C38.3162938,23.9225062 38.3162938,23.9376338 38.3520515,23.960907 C38.3656147,23.953925 38.3853431,23.9515977 38.4050715,23.9515977 C38.430965,23.9515977 38.4568584,23.9562523 38.4741208,23.9620706 L38.4778198,23.9620706 C38.488917,23.960907 38.5086454,23.957416 38.5148105,23.9550887 C38.5530342,23.9434521 38.59619,23.9166879 38.6442779,23.8759598 C38.6788026,23.8457047 38.7120942,23.8096313 38.7441528,23.7712305 C38.7663472,23.7444664 38.7873086,23.7177022 38.8132021,23.6816288 C38.8995137,23.5699175 38.9734951,23.4721701 39.0844672,23.4523879 L39.1473514,23.4395876 C39.2164006,23.4256237 39.289149,23.4104962 39.3754606,23.4104962 C39.4025871,23.4104962 39.4309467,23.4116598 39.4605392,23.4151508 C39.5320545,23.4232964 39.607269,23.4395876 39.6960466,23.4698428 C39.770028,23.4942796 39.8797671,23.5268621 40.0215647,23.5640992 L40.3544809,23.6490463 L40.51724,23.6862834 C40.7638446,23.742139 40.8809818,23.7595939 40.9315357,23.7642486 L40.9635943,23.7654122 C41.0240125,23.7654122 41.0610031,23.7561029 41.0844306,23.7281751 C41.104159,23.6874471 41.1473148,23.6618465 41.1941696,23.6618465 L41.266918,23.6630102 C41.2792482,23.6630102 41.2915785,23.6548646 41.2952775,23.643228 C41.3002096,23.6315914 41.2965105,23.6199548 41.2878794,23.6118092 C41.2582868,23.588536 41.2003348,23.5478079 41.1300524,23.5280257 C41.104159,23.5198801 41.0794985,23.5163891 41.0573041,23.5163891 L40.8970111,23.5163891 C40.8538553,23.5163891 40.8143985,23.489625 40.7934371,23.4535515 C40.7712427,23.4186418 40.7737088,23.3697681 40.7959032,23.3348583 C40.8020683,23.3208944 40.7959032,23.3057668 40.7811069,23.2976212 L40.7219218,23.2685297 C40.6824651,23.2487475 40.6578046,23.2126741 40.6553386,23.171946 L40.6380762,23.1451819 C40.62328,23.1381999 40.6023186,23.1347089 40.57026,23.1288906 C40.5554637,23.1253996 40.5394344,23.1219087 40.4975116,23.1091084 C40.4975116,23.1091084 40.2841986,23.018343 40.2422758,22.9997245 C40.1818577,22.9717966 40.1202065,22.9438688 40.0634875,22.9147773 L40.0104675,22.8868495 C39.9722438,22.8659036 39.8994954,22.8519397 39.823048,22.8356485 C39.7848243,22.8275029 39.7466006,22.8205209 39.7133089,22.8112117 C39.6331624,22.7914295 39.5530159,22.7646653 39.4765685,22.7332465 C39.4284806,22.7123006 39.3816257,22.6901911 39.3347709,22.6634269 C39.2644885,22.6250262 39.2065365,22.5889527 39.1596816,22.5517157 C39.0339132,22.4528046 38.9759611,22.3492389 38.8810184,22.1502532 C38.8353965,22.0559968 38.7910077,21.9512675 38.7490849,21.8395562 C38.6763365,21.6545344 38.6023552,21.4392574 38.5345389,21.2158349 L38.5061794,21.1192512 C38.4741208,21.0133582 38.4469943,20.9144471 38.4235668,20.8225181 C38.4161687,20.7910993 38.4223338,20.7585168 38.4408291,20.7317526 C38.4605575,20.7049885 38.4901501,20.6863699 38.5234417,20.6805516 C38.5764617,20.6735697 38.6060542,20.6642604 38.6220835,20.6514602 C38.6516761,20.6270233 38.6553752,20.5967682 38.6516761,20.5001845 C38.647977,20.409419 38.6418119,20.2721072 38.6800356,20.047521 C38.699764,19.9393007 38.7244244,19.8229348 38.7490849,19.7100598 C38.8033379,19.4668551 38.8649891,19.2387779 38.8958146,19.1235756 C38.9093779,19.0747019 38.9562328,19.0386285 39.0104858,19.0374648 C39.0437774,19.0374648 39.0881662,19.0351375 39.1436523,19.0293192 C39.2533913,19.0176826 39.3643634,18.9932458 39.4728694,18.9594996 C39.557948,18.9315718 39.6417936,18.900153 39.7194741,18.8617523 C39.7441345,18.848952 39.770028,18.8349881 39.7959215,18.8221879 C39.874835,18.7779688 39.9512824,18.7407317 40.0252638,18.7058219 L40.0585554,18.688367 C40.1140414,18.6627665 40.1707605,18.637166 40.2262465,18.6069109 C40.2768005,18.5824741 40.3273544,18.5545462 40.3779084,18.5242911 C40.4321614,18.4917086 40.4864144,18.4544715 40.5431335,18.4137435 C40.6886302,18.3031958 40.8254957,18.1705387 40.9598953,18.0052991 C41.0190804,17.9296612 41.0819645,17.8470414 41.1460817,17.7539487 L41.1781403,17.7062387 C41.2434906,17.6084913 41.3261031,17.5072529 41.429677,17.3967053 C41.4987263,17.3245584 41.5739407,17.2512479 41.6528542,17.1767737 C41.7256026,17.1081178 41.803283,17.0394619 41.8834295,16.9696424 L42.3421141,16.56818 C42.4752806,16.451814 42.6109131,16.3273025 42.7440796,16.1981363 L42.8982075,16.0433696 C42.9869852,15.9526042 43.0732968,15.8571842 43.1596084,15.7582731 C43.2927749,15.6011791 43.4086791,15.4475761 43.5159521,15.2881548 C43.5467776,15.2416084 43.5763702,15.1938984 43.6121279,15.1357155 C43.6910413,15.0053856 43.7625567,14.8704012 43.8254408,14.737744 C43.8636646,14.6551242 43.8994222,14.5678498 43.9327139,14.4805753 C44.1595901,13.8859455 44.2237073,13.2587331 44.1201334,12.552392" id="Fill-5" fill="#004177"></path>
                </g>
                <g id="Page-1" transform="translate(137.000000, 5.000000)">
                    <g id="Stroke-4">
                        <use fill="#FEF8EC" fill-rule="evenodd" xlink:href="#path-1"></use>
                        <path stroke="#174375" stroke-width="1.36857" d="M51.9470057,14.5186046 C51.9470057,7.09369211 40.564129,0.872874231 26.4102144,0.872874231 C12.2566794,0.872874231 0.873872288,7.09372773 0.873872288,14.5186046 C0.873872288,21.9435751 12.256835,28.1647812 26.4102144,28.1647812 C40.5639735,28.1647812 51.9470057,21.9436107 51.9470057,14.5186046 Z"></path>
                    </g>
                    <polygon id="Fill-1" fill="#124376" points="11.0579559 18.7186969 8.78569322 18.7186969 8.78569322 9.89868154 16.4320661 9.89868154 16.4320661 10.8141892 11.0579559 10.8141892 11.0579559 13.9604662 15.8607441 13.9604662 15.8607441 14.87642 11.0579559 14.87642"></polygon>
                    <polygon id="Fill-2" fill="#124376" points="23.2210068 21.2457569 19.396922 21.2457569 19.396922 6.39998769 23.2210068 6.39998769 23.2210068 12.9981569 31.8523712 12.9981569 31.8523712 6.39998769 33.5348966 6.39998769 33.5348966 21.2457569 31.8523712 21.2457569 31.8523712 14.5610338 23.2210068 14.5610338"></polygon>
                    <polygon id="Fill-3" fill="#124376" points="39.824739 18.7186969 37.5533746 18.7186969 37.5533746 9.89868154 45.1997475 9.89868154 45.1997475 10.8141892 39.824739 10.8141892 39.824739 13.9604662 44.6284254 13.9604662 44.6284254 14.87642 39.824739 14.87642"></polygon>
                </g>
                <g id="Page-1" transform="translate(0.000000, 5.000000)">
                    <g id="Stroke-7">
                        <use fill="#FEF8EC" fill-rule="evenodd" xlink:href="#path-2"></use>
                        <path stroke="#174375" stroke-width="1.36857" d="M50.9540506,14.5186046 C50.9540506,7.09002132 39.7924032,0.872874231 25.9119966,0.872874231 C12.0316741,0.872874231 0.870383305,7.08996983 0.870383305,14.5186046 C0.870383305,21.947333 12.031827,28.1647812 25.9119966,28.1647812 C39.7922504,28.1647812 50.9540506,21.9472815 50.9540506,14.5186046 Z"></path>
                    </g>
                    <path d="M12.8776237,18.8089092 C12.2492169,18.8089092 11.6679627,18.6906785 11.1329797,18.4546631 C10.5979966,18.2182015 10.1370475,17.8956323 9.75101356,17.4874015 C9.36453898,17.0791708 9.06091186,16.6000015 8.84057288,16.0494477 C8.61935254,15.4997862 8.50918305,14.9064015 8.50918305,14.2701862 L8.50918305,14.2447554 C8.50918305,13.6254938 8.61935254,13.0383554 8.84057288,12.4842323 C9.06091186,11.9296631 9.36674237,11.4460323 9.75762373,11.03334 C10.1480644,10.6206477 10.612539,10.2945092 11.1519288,10.0535862 C11.6913186,9.81310923 12.2791831,9.69220154 12.9159627,9.69220154 C13.3068441,9.69220154 13.6629119,9.72700154 13.9859288,9.79570923 C14.3085051,9.86441692 14.605522,9.95900154 14.8774203,10.0794631 C15.148878,10.1999246 15.4018271,10.3458169 15.6353864,10.5175862 C15.8685051,10.6898015 16.0958949,10.8789708 16.3166746,11.0850938 L15.8967085,11.8203554 C15.5992508,11.4589708 15.2700644,11.16674 14.9091492,10.9432169 C14.5482339,10.7196938 14.1216576,10.6081554 13.6294203,10.6081554 C13.2301661,10.6081554 12.8586746,10.7005092 12.5149458,10.8852169 C12.1707763,11.0699246 11.8737593,11.3260169 11.6230136,11.6526015 C11.3727085,11.9791862 11.1774881,12.3642169 11.0373525,12.8068015 C10.8972169,13.2493862 10.8275898,13.72454 10.8275898,14.2313708 L10.8275898,14.2447554 C10.8275898,14.7600631 10.8994203,15.2396785 11.0439627,15.6818169 C11.1880644,16.1248477 11.3854881,16.5098785 11.6362339,16.8360169 C11.886539,17.1630477 12.1813525,17.4209246 12.5211153,17.6096477 C12.860878,17.7988169 13.2301661,17.8934015 13.6294203,17.8934015 C14.1304712,17.8934015 14.5570475,17.7840938 14.9091492,17.5645862 C15.2612508,17.3455246 15.6115898,17.0296477 15.9601661,16.6169554 L16.3550136,17.2616477 C16.1254203,17.4940938 15.8900983,17.7042323 15.6477254,17.8934015 C15.4057932,18.0825708 15.1449119,18.2458631 14.8646407,18.3837246 C14.5843695,18.52114 14.2811831,18.6264323 13.9537593,18.6996015 C13.6267763,18.7723246 13.2685051,18.8089092 12.8776237,18.8089092" id="Fill-1" fill="#004177"></path>
                    <path d="M25.0694203,19.6829246 C25.4982,19.6396477 25.8732169,19.57094 26.1949119,19.4768015 C26.5166068,19.3826631 26.7915898,19.2671092 27.0203017,19.1296938 C27.2485729,18.9922785 27.4385051,18.8441554 27.5887763,18.6848785 C27.7386068,18.5256015 27.8562678,18.3667708 27.9422,18.2070477 C28.1422678,17.8313862 28.2207085,17.4186938 28.1779627,16.9698631 C28.1493186,16.6374785 28.0281322,16.3265092 27.8139627,16.0365092 C27.6279966,15.7906785 27.3450814,15.53414 26.9669797,15.2664477 C26.5875559,14.9983092 26.0411153,14.7779092 25.3267763,14.6039092 L24.4264712,14.3870785 C22.6540644,14.0399708 21.3567085,13.5514323 20.5352847,12.9219092 C19.7134203,12.2928323 19.3027085,11.4206015 19.3027085,10.3065554 L19.3027085,10.2632785 C19.3027085,9.64089385 19.4344712,9.08007846 19.698878,8.58083231 C19.9632847,8.08158615 20.3352169,7.65506308 20.8142339,7.30037077 C21.2928102,6.94612462 21.8608441,6.67084769 22.5183356,6.47543231 C23.1753864,6.28046308 23.8976576,6.18275538 24.6833864,6.18275538 C25.9410814,6.18275538 27.0916915,6.37103231 28.1352169,6.74714 C29.1783017,7.12369385 30.1715898,7.70190923 31.1150814,8.48312462 L30.1931831,9.39461692 C29.749861,9.00423231 29.2426407,8.66470923 28.6710814,8.37470923 C28.1850136,8.12932462 27.6130136,7.91561692 26.9559627,7.73447846 C26.2984712,7.55378615 25.5766407,7.49266308 24.7904712,7.55021692 C23.9902,7.60821692 23.404539,7.77775538 23.0330475,8.06017077 C22.6611153,8.34214 22.3967085,8.64284769 22.2393864,8.96095538 C22.0679627,9.33750923 22.0036237,9.75689385 22.0468102,10.2195554 C22.1036576,10.5528323 22.246878,10.8638015 22.4751492,11.1529092 C22.6752169,11.4134631 22.9682678,11.6780323 23.3543017,11.9452785 C23.7403356,12.2134169 24.2977932,12.4262323 25.0262339,12.5855092 L25.7767085,12.7809246 C26.019522,12.8242015 26.3416576,12.8822015 26.7417932,12.9544785 C27.1414881,13.0272015 27.5671831,13.1356169 28.0171153,13.2797246 C28.4674881,13.4251708 28.9244712,13.6058631 29.3893864,13.8226938 C29.8534203,14.0399708 30.268539,14.3076631 30.632539,14.6257708 C30.9969797,14.9443246 31.297522,15.3204323 31.5332847,15.7540938 C31.7690475,16.1886477 31.8871492,16.6878938 31.8871492,17.2522785 C31.8871492,17.9464938 31.7404034,18.53274 31.4473525,19.0101246 C31.1543017,19.4879554 30.7753186,19.8752169 30.3112847,20.1714631 C29.8468102,20.4681554 29.3320983,20.6925708 28.7675898,20.8442631 C28.2026407,20.9959554 27.6526746,21.1012477 27.1168102,21.1592477 C26.5809458,21.2168015 26.0878271,21.2422323 25.6374542,21.2350938 C25.187522,21.2279554 24.8552508,21.2168015 24.6406407,21.2020785 C24.5265051,21.2020785 24.4476237,21.1953862 24.404878,21.1806631 C23.9760983,21.1516631 23.4970814,21.0579708 22.9682678,20.8986938 C22.4394542,20.7394169 21.9247424,20.5475708 21.4245729,20.3236015 C20.9244034,20.0991862 20.4674203,19.8600477 20.0527424,19.6070785 C19.6380644,19.3541092 19.3163695,19.1118477 19.0880983,18.8798477 L20.117522,17.9250785 C20.3316915,18.1280785 20.5991831,18.3449092 20.9213186,18.5764631 C21.2425729,18.8075708 21.610539,19.0136938 22.0252169,19.1943862 C22.4394542,19.3759708 22.9004034,19.51294 23.4076237,19.6070785 C23.9152847,19.7012169 24.4692169,19.7266477 25.0694203,19.6829246" id="Fill-3" fill="#004177"></path>
                    <path d="M37.0184915,15.4048 L41.0432034,15.4048 L39.0178475,11.0592615 L37.0184915,15.4048 Z M38.5339831,9.82118462 L40.8012712,9.82118462 L44.8511017,18.7576462 L42.2912034,18.7576462 L41.2851356,16.4621846 L36.5090678,16.4621846 L35.4897797,18.7576462 L34.4837119,18.7576462 L38.5339831,9.82118462 Z" id="Fill-5" fill="#004177"></path>
                </g>
            </g>
        </g>
    </g>
</svg>